<!--?xml version="1.0" encoding="utf-8"?-->
<!-- Generator: Adobe Illustrator 22.1.0, SVG Export Plug-In . SVG Version: 6.00 Build 0)  -->
<svg version="1.1" id="_x39_" xmlns="http://www.w3.org/2000/svg" xmlns:xlink="http://www.w3.org/1999/xlink" x="0px" y="0px" viewBox="0 0 800 560.7" style="enable-background:new 0 0 800 560.7;" xml:space="preserve">
<style type="text/css">
	.st0{fill:#3D3C2C;}
</style>
<g>
	<path class="st0" d="M795.2,494.4c0-10.2-0.4-10.2-0.4-20.4c0-10.2,0.3-10.2,0.3-20.4c0-10.2-0.6-10.2-0.6-20.4
		c0-10.2,1.6-10.2,1.6-20.4c0-10.2-2.4-10.2-2.4-20.4c0-10.2-0.1-10.2-0.1-20.4c0-10.2,1-10.2,1-20.4s0.4-10.2,0.4-20.4
		s0.4-10.2,0.4-20.4c0-10.2-0.6-10.2-0.6-20.4c0-10.2-0.6-10.2-0.6-20.4s1.6-10.2,1.6-20.4c0-10.2-0.5-10.2-0.5-20.4
		c0-10.2-0.3-10.2-0.3-20.4s0.2-10.2,0.2-20.4c0-10.2-0.7-10.2-0.7-20.4c0-10.2-0.6-10.2-0.6-20.4c0-10.2,1.2-10.2,1.2-20.4
		c0-10.2-0.5-10.2-0.5-20.4c0-10.2,0.4-10.2,0.4-20.4c0-10.2,0.8-10.2,0.8-20.4c0-10.2-2.2-10.2-2.2-20.4c0-10.2,0.4-10.2,0.4-20.4
		c0-10.2,1.3-21.1,1.3-21.1s-10.8,0-20.9,0c-10.1,0-10.1-0.3-20.2-0.3S744,3.1,733.9,3.1c-10.1,0-10.1,1.3-20.2,1.3
		c-10.1,0-10.1-1.3-20.2-1.3c-10.1,0-10.1,1.2-20.2,1.2C663.1,4.4,663.1,5,653,5c-10.1,0-10.1-1.9-20.2-1.9
		c-10.1,0-10.1-0.1-20.2-0.1c-10.1,0-10.1,0.3-20.2,0.3c-10.1,0-10.1,0.3-20.2,0.3c-10.1,0-10.1-0.5-20.2-0.5
		c-10.1,0-10.1-0.2-20.2-0.2c-10.1,0-10.1,1.9-20.2,1.9c-10.1,0-10.1-1.3-20.2-1.3c-10.1,0-10.1-0.2-20.2-0.2
		c-10.1,0-10.1,1.4-20.2,1.4s-10.1-1.5-20.2-1.5c-10.1,0-10.1,0.3-20.2,0.3c-10.1,0-10.1,1.7-20.2,1.7c-10.1,0-10.1-0.9-20.2-0.9
		s-10.1,0.5-20.2,0.5c-10.1,0-10.1,0.5-20.2,0.5c-10.1,0-10.1-2.2-20.2-2.2c-10.1,0-10.1,2-20.2,2c-10.1,0-10.1-0.5-20.2-0.5
		c-10.1,0-10.1-0.7-20.2-0.7c-10.1,0-10.1,1-20.2,1c-10.1,0-10.1-2.1-20.2-2.1c-10.1,0-10.1,2.2-20.2,2.2c-10.1,0-10.1-1.6-20.2-1.6
		c-10.1,0-10.1,0.2-20.2,0.2c-10.1,0-10.1-0.5-20.2-0.5c-10.1,0-10.1,2.1-20.2,2.1c-10.1,0-10.1-1.1-20.2-1.1
		C76.1,4.1,76.1,4.6,66,4.6C55.9,4.6,55.9,5,45.8,5C35.7,5,35.7,3.5,25.5,3.5C15.4,3.5,6.2,5.1,6.2,5.1s-2,9.3-2,19.5
		C4.2,34.8,5,34.8,5,45.1c0,10.2,0.4,10.2,0.4,20.4c0,10.2,0,10.2,0,20.4c0,10.2,1,10.2,1,20.4s-0.8,10.2-0.8,20.4
		S4.1,137,4.1,147.2c0,10.2,0.5,10.2,0.5,20.4C4.6,177.8,4,177.8,4,188c0,10.2,1.6,10.2,1.6,20.4c0,10.2,0,10.2,0,20.4
		c0,10.2-0.5,10.2-0.5,20.4c0,10.2-0.4,10.2-0.4,20.4c0,10.2-0.2,10.2-0.2,20.4c0,10.2,0.3,10.2,0.3,20.4c0,10.2,1.6,10.2,1.6,20.4
		c0,10.2-0.5,10.2-0.5,20.4s-1.4,10.2-1.4,20.4s0.7,10.2,0.7,20.4c0,10.2,1.1,10.2,1.1,20.4c0,10.2-2.2,10.2-2.2,20.4
		c0,10.2,0,10.2,0,20.4S4,463.8,4,474c0,10.2,1.5,10.2,1.5,20.4c0,10.2-1.2,10.2-1.2,20.4c0,10.2,2,10.2,2,20.4
		c0,10.2-1.4,20.8-1.4,20.8s10.2,3.4,20.9,1c9.9-2.2,9.8-2.4,19.9-2.4s10.1,2.3,20.2,2.3s10.1-0.4,20.2-0.4
		c10.1,0,10.1-1.6,20.2-1.6c10.1,0,10.1-0.5,20.2-0.5s10.1,2,20.2,2c10.1,0,10.1-0.7,20.2-0.7c10.1,0,10.1-0.7,20.2-0.7
		c10.1,0,10.1-0.1,20.2-0.1c10.1,0,10.1,2.1,20.2,2.1c10.1,0,10.1-2.3,20.2-2.3c10.1,0,10.1-0.1,20.2-0.1c10.1,0,10.1,1.4,20.2,1.4
		c10.1,0,10.1-0.6,20.2-0.6c10.1,0,10.1,1.6,20.2,1.6c10.1,0,10.1-0.9,20.2-0.9s10.1,0.6,20.2,0.6c10.1,0,10.1-0.8,20.2-0.8
		c10.1,0,10.1-1,20.2-1c10.1,0,10.1,0.7,20.2,0.7c10.1,0,10.1-0.9,20.2-0.9c10.1,0,10.1,0.8,20.2,0.8c10.1,0,10.1-0.1,20.2-0.1
		c10.1,0,10.1,0,20.2,0s10.1-0.6,20.2-0.6c10.1,0,10.1,0.8,20.2,0.8c10.1,0,10.1-1.3,20.2-1.3c10.1,0,10.1,2.5,20.2,2.5
		c10.1,0,10.1-0.4,20.2-0.4c10.1,0,10.1-0.9,20.2-0.9c10.1,0,10.1-0.7,20.2-0.7c10.1,0,10.1,1.8,20.2,1.8s10.1,0.1,20.2,0.1
		c10.1,0,10.1-1.3,20.2-1.3c10.1,0,10.1,1.4,20.2,1.4c10.1,0,10.1-2,20.2-2c10.1,0,10.1,0.4,20.2,0.4c10.1,0,20,0.3,20,0.3
		s-0.5-9.9-0.5-20.2c0-10.2,0.1-10.2,0.1-20.4C794,504.6,795.2,504.6,795.2,494.4z M784.6,239.2c0,10.2-2,10.2-2,20.3
		c0,10.2,0.9,10.2,0.9,20.3c0,10.2-0.2,10.2-0.2,20.3c0,10.2,0.6,10.2,0.6,20.3c0,10.2-1.1,10.2-1.1,20.3c0,10.2-0.8,10.2-0.8,20.3
		c0,10.2,1.8,10.2,1.8,20.3c0,10.2-0.3,10.2-0.3,20.3c0,10.2,0.2,10.2,0.2,20.3c0,10.2-1.7,10.2-1.7,20.3c0,10.2,1.7,10.2,1.7,20.3
		c0,10.2,0,10.2,0,20.3c0,10.2,0.4,10.2,0.4,20.3c0,10.2-0.8,10.2-0.8,20.3c0,10.2,0.8,20.9,0.8,20.9s-10.7-1.3-20.8-1.3
		c-10.1,0-10.1,0.3-20.2,0.3c-10.1,0-10.1-0.6-20.2-0.6c-10.1,0-10.1,1.2-20.2,1.2c-10.1,0-10.1-1-20.2-1c-10.1,0-10.1-0.3-20.2-0.3
		c-10.1,0-10.1,2.4-20.2,2.4c-10.1,0-10.1-1-20.2-1c-10.1,0-10.1,0.8-20.2,0.8c-10.1,0-10.1-2.2-20.2-2.2c-10.1,0-10.1,2.1-20.2,2.1
		c-10.1,0-10.1-1-20.2-1c-10.1,0-10.1-1.2-20.2-1.2c-10.1,0-10.1,1.5-20.2,1.5c-10.1,0-10.1,0.5-20.2,0.5c-10.1,0-10.1-1.4-20.2-1.4
		c-10.1,0-10.1,0.9-20.2,0.9c-10.1,0-10.1,0.7-20.2,0.7c-10.1,0-10.1-0.8-20.2-0.8s-10.1,0-20.2,0s-10.1-0.3-20.2-0.3
		c-10.1,0-10.1,0.8-20.2,0.8c-10.1,0-10.1,0.6-20.2,0.6s-10.1-1-20.2-1c-10.1,0-10.1-0.2-20.2-0.2c-10.1,0-10.1-1.1-20.2-1.1
		c-10.1,0-10.1,2-20.2,2c-10.1,0-10.1-2-20.2-2s-10.1,1.9-20.2,1.9s-10.1,0.3-20.2,0.3s-10.1-1.1-20.2-1.1
		c-10.1,0-10.1,0.9-20.2,0.9c-10.1,0-10.1-0.3-20.2-0.3c-10.1,0-10.1,0-20.2,0s-10.1-1.8-20.2-1.8c-10.1,0-10.1,0-20.2,0
		c-10.1,0-10.7-2.5-20.5-0.2c-10.9,2.5-20.6,2.1-20.6,2.1s-0.6-10.9-0.6-21.1s2.5-10.2,2.5-20.3c0-10.2-2.2-10.2-2.2-20.3
		c0-10.2,1.1-10.2,1.1-20.3c0-10.2,1.1-10.2,1.1-20.3c0-10.2-1.9-10.2-1.9-20.3c0-10.2,1.5-10.2,1.5-20.3c0-10.2,0.4-10.2,0.4-20.3
		c0-10.2-0.1-10.2-0.1-20.3c0-10.2-1.9-10.2-1.9-20.3c0-10.2,1.5-10.2,1.5-20.3c0-10.2-0.2-10.2-0.2-20.3c0-10.2-0.7-10.2-0.7-20.3
		c0-10.2,0.3-10.2,0.3-20.3c0-10.2-1.4-10.2-1.4-20.3c0-10.2,0.4-10.2,0.4-20.3c0-10.2,1.2-10.2,1.2-20.3c0-10.2,0.2-10.2,0.2-20.3
		c0-10.2-0.3-10.2-0.3-20.3c0-10.2,0.4-10.2,0.4-20.3c0-10.2-1-10.2-1-20.3c0-10.2,1.7-10.2,1.7-20.3c0-10.2-2.3-10.2-2.3-20.3
		c0-10.2,1.3-10.2,1.3-20.3c0-10.2,0.1-10.2,0.1-20.3s-0.9-21-0.9-21s10.7,1.1,20.8,1.1c10.1,0,10.1,0.8,20.2,0.8
		c10.1,0,10.1-1.8,20.2-1.8c10.1,0,10.1,1.7,20.2,1.7c10.1,0,10.1-1.5,20.2-1.5s10.1,1,20.2,1c10.1,0,10.1,0.1,20.2,0.1
		c10.1,0,10.1-0.9,20.2-0.9c10.1,0,10.1-1.2,20.2-1.2c10.1,0,10.1,2.2,20.2,2.2s10.1-2,20.2-2c10.1,0,10.1,1.1,20.2,1.1
		c10.1,0,10.1,1,20.2,1c10.1,0,10.1-0.8,20.2-0.8c10.1,0,10.1,0.7,20.2,0.7c10.1,0,10.1-1.5,20.2-1.5s10.1,1.7,20.2,1.7
		s10.1-1.7,20.2-1.7c10.1,0,10.1,0.9,20.2,0.9c10.1,0,10.1,0.2,20.2,0.2s10.1,0,20.2,0c10.1,0,10.1,0.3,20.2,0.3s10.1,0.2,20.2,0.2
		c10.1,0,10.1-0.4,20.2-0.4c10.1,0,10.1-1.7,20.2-1.7c10.1,0,10.1,2.2,20.2,2.2c10.1,0,10.1-0.6,20.2-0.6c10.1,0,10.1,0.2,20.2,0.2
		s10.1-1.7,20.2-1.7c10.1,0,10.1,2.1,20.2,2.1c10.1,0,10.1-1.4,20.2-1.4c10.1,0,10.1,1.3,20.2,1.3c10.1,0,10.1-2.2,20.2-2.2
		s10.1,1.6,20.2,1.6c10.1,0,10.1,0.3,20.2,0.3c10.1,0,10.1-1.4,20.2-1.4s10.1,1.7,20.2,1.7c10.1,0,19.6-0.6,19.6-0.6
		s-0.4,9.6-0.4,19.8s0,10.2,0,20.3c0,10.2-0.1,10.2-0.1,20.3c0,10.2,0.2,10.2,0.2,20.3c0,10.2,0.8,10.2,0.8,20.3
		c0,10.2,0.5,10.2,0.5,20.3c0,10.2-0.7,10.2-0.7,20.3c0,10.2,1.7,10.2,1.7,20.3c0,10.2-0.2,10.2-0.2,20.3s-1.4,10.2-1.4,20.3
		C783,229.1,784.6,229.1,784.6,239.2z" style="fill: rgb(95, 76, 69);"></path>
	<path class="st0" d="M770.5,229.9c0-10-1.5-10-1.5-20c0-10-0.7-10-0.7-20c0-10,0.9-10,0.9-20c0-10-0.2-10-0.2-20
		c0-10,0.5-10,0.5-20c0-10-0.4-10-0.4-20c0-10,1.3-10,1.3-20s-2.6-10-2.6-20c0-10,0.6-10,0.6-20c0-10-0.1-19-0.1-19
		s-9.3-2.2-19.5-2.2c-10.3,0-10.3,0.3-20.5,0.3c-10.3,0-10.3,0.9-20.5,0.9c-10.3,0-10.3-0.7-20.5-0.7c-10.3,0-10.3,0.3-20.5,0.3
		c-10.3,0-10.3-0.6-20.5-0.6c-10.3,0-11.6,0.2-21.8,0.2c-10.3,0-9-0.3-19.2-0.3c-10.3,0-10.3,0-20.5,0c-10.3,0-10.3,2-20.5,2
		s-10.3-1.6-20.5-1.6c-10.3,0-10.3,1.6-20.5,1.6s-10.3-0.6-20.5-0.6c-10.3,0-10.3,1.3-20.5,1.3c-10.3,0-10.3-1.1-20.5-1.1
		c-10.3,0-10.3,0.2-20.5,0.2c-10.3,0-10.3-1.2-20.5-1.2c-10.3,0-10.3,1.9-20.5,1.9c-10.3,0-10.3-1.8-20.5-1.8
		c-10.3,0-10.3,1.4-20.5,1.4c-10.3,0-10.3-1-20.5-1c-10.3,0-10.3-0.3-20.5-0.3c-10.3,0-10.3-0.5-20.5-0.5c-10.3,0-10.3,1.1-20.5,1.1
		s-10.3,0.1-20.5,0.1s-10.3,0.6-20.5,0.6c-10.3,0-10.3-2.1-20.5-2.1s-10.3,2.2-20.5,2.2c-10.3,0-10.3-1.9-20.5-1.9
		c-10.3,0-10.3,0.3-20.5,0.3s-10.3,1.1-20.5,1.1s-10.3-0.7-20.5-0.7s-10.3-0.6-20.5-0.6S82.1,30,71.8,30s-10.3-1-20.5-1
		S31,29.9,31,29.9c-1.8,0.6,0.3,9.8,0.3,19.8s-1.6,10-1.6,20c0,10,0.6,10,0.6,20c0,10-0.8,10-0.8,20s2.4,10,2.4,20
		c0,10-1.3,10-1.3,20c0,10,0.5,10,0.5,20c0,10-0.6,10-0.6,20c0,10-0.7,10-0.7,20s0.9,10,0.9,20c0,10-1.1,10-1.1,20
		c0,10,1.5,10,1.5,20c0,10-0.1,10-0.1,20c0,10,1,10,1,20s-2.3,10-2.3,20c0,10,2.3,10,2.3,20c0,10-0.4,10-0.4,20c0,10-0.9,10-0.9,20
		c0,10-1,10-1,20c0,10,0.9,10,0.9,20c0,10,0.1,10,0.1,20c0,10,1,10,1,20c0,10-1.5,10-1.5,20c0,10,0.6,10,0.6,20
		c0,10-0.3,18.5,1.1,19c0,0,9.1,1.9,19.3-0.1c10.1-1.9,10.5,0.9,20.7,0.9c10.3,0,10.3-0.3,20.5-0.3c10.3,0,10.3,0.1,20.5,0.1
		c10.3,0,10.3,0.8,20.5,0.8c10.3,0,10.3,0.1,20.5,0.1c10.3,0,10.3-0.2,20.5-0.2c10.3,0,10.3,0,20.5,0c10.3,0,10.3,0.8,20.5,0.8
		c10.3,0,10.3-2.4,20.5-2.4c10.3,0,10.3,0.1,20.5,0.1c10.3,0,10.3,1.8,20.5,1.8c10.3,0,10.3-1.1,20.5-1.1c10.3,0,10.3,1.8,20.5,1.8
		s10.3-2,20.5-2c10.3,0,10.3-0.5,20.5-0.5c10.3,0,10.3,1.8,20.5,1.8c10.3,0,10.3-1.7,20.5-1.7c10.3,0,10.3,1.4,20.5,1.4
		c10.3,0,10.3,0.3,20.5,0.3c10.3,0,10.3-0.1,20.5-0.1c10.3,0,10.3,0.8,20.5,0.8c10.3,0,10.3-2.4,20.5-2.4c10.3,0,10.3,1.5,20.5,1.5
		s10.3,1,20.5,1s10.3-1.2,20.5-1.2c10.3,0,10.3-0.4,20.5-0.4c10.3,0,10.3,0.2,20.5,0.2s10.3-1.4,20.5-1.4c10.3,0,10.3,1,20.5,1
		s10.3-0.3,20.5-0.3c10.3,0,10.3,1,20.5,1c10.3,0,10.3-1.4,20.5-1.4c10.3,0,10.3,2.4,20.5,2.4c10.3,0,10.3-2.2,20.5-2.2
		c10.3,0,20,2.3,20.6,1c0,0,0.1-10.1,0.1-20.1c0-10-0.9-10-0.9-20c0-10,1.4-10,1.4-20c0-10-1.8-10-1.8-20c0-10,0.4-10,0.4-20
		c0-10-0.7-10-0.7-20c0-10,0.2-10,0.2-20c0-10,1.4-10,1.4-20c0-10,0.9-10,0.9-20c0-10-1.1-10-1.1-20s-0.4-10-0.4-20s0.7-10,0.7-20
		c0-10-0.3-10-0.3-20c0-10,1.3-10,1.3-20C770.4,239.9,770.5,239.9,770.5,229.9z M764.6,320.7c0,10.2-2,10.2-2,20.4
		c0,10.2-0.1,10.2-0.1,20.4c0,10.2,1.5,10.2,1.5,20.4c0,10.2-1.4,10.2-1.4,20.4c0,10.2,1.1,10.2,1.1,20.4c0,10.2,0.4,10.2,0.4,20.4
		c0,10.2-1.6,10.2-1.6,20.4c0,10.2,1.7,10.2,1.7,20.4c0,10.2-1,10.2-1,20.4c0,10.2,1,19.5-0.2,19.8c0,0-9.5,1-19.6,1
		c-10.1,0-10.1-1.4-20.2-1.4s-10.1,1.6-20.2,1.6s-10.1,0.6-20.2,0.6c-10.1,0-10.1-2.5-20.2-2.5c-10.1,0-10.1,1.2-20.2,1.2
		c-10.1,0-10.1-0.4-20.2-0.4c-10.1,0-10.1,1.8-20.2,1.8c-10.1,0-10.1-1.6-20.2-1.6s-10.1-1-20.2-1c-10.1,0-10.1-0.1-20.2-0.1
		s-10.1,2-20.2,2c-10.1,0-10.1,0.7-20.2,0.7c-10.1,0-10.1-0.8-20.2-0.8c-10.1,0-10.1,0.9-20.2,0.9c-10.1,0-10.1-0.4-20.2-0.4
		s-10.1,0.2-20.2,0.2c-10.1,0-10.1-2-20.2-2c-10.1,0-10.1,1.3-20.2,1.3c-10.1,0-10.1-0.9-20.2-0.9c-10.1,0-10.1,1.4-20.2,1.4
		c-10.1,0-10.1-0.5-20.2-0.5c-10.1,0-10.1-0.5-20.2-0.5c-10.1,0-10.1-0.9-20.2-0.9s-10.1,1.4-20.2,1.4c-10.1,0-10.1-1.9-20.2-1.9
		c-10.1,0-10.1,2.2-20.2,2.2c-10.1,0-10.1-1.2-20.2-1.2c-10.1,0-10.1-1-20.2-1c-10.1,0-10.1,2.2-20.2,2.2c-10.1,0-10.1-1.7-20.2-1.7
		c-10.1,0-10.1,1.8-20.2,1.8c-10.1,0-10.1-1.4-20.2-1.4c-10.1,0-10.1,1.8-20.2,1.8c-10.1,0-10.6-4.6-20.4-2.4
		c-10.6,2.3-20.2,1.3-20.2,1.3s0.4-10.4,0.4-20.6c0-10.2,0.4-10.2,0.4-20.4c0-10.2-1-10.2-1-20.4c0-10.2-0.6-10.2-0.6-20.4
		s-0.3-10.2-0.3-20.4c0-10.2,2.5-10.2,2.5-20.4c0-10.2-0.9-10.2-0.9-20.4c0-10.2-0.4-10.2-0.4-20.4s1.3-10.2,1.3-20.4
		c0-10.2-2-10.2-2-20.4c0-10.2-0.3-10.2-0.3-20.4s0-10.2,0-20.4c0-10.2,2.5-10.2,2.5-20.4c0-10.2-1.9-10.2-1.9-20.4
		c0-10.2,0.5-10.2,0.5-20.4c0-10.2,0.8-10.2,0.8-20.4s-0.3-10.2-0.3-20.4c0-10.2-0.8-10.2-0.8-20.4c0-10.2,0.6-10.2,0.6-20.4
		c0-10.2-1.5-10.2-1.5-20.4c0-10.2,2.4-10.2,2.4-20.4c0-10.2-1.2-10.2-1.2-20.4c0-10.2-0.3-10.2-0.3-20.4c0-10.2,0.6-20.2,0.6-20.2
		s10-0.4,20-0.4c10.1,0,10.1-0.4,20.2-0.4c10.1,0,10.1,1.9,20.2,1.9c10.1,0,10.1-1,20.2-1c10.1,0,10.1,0,20.2,0
		c10.1,0,10.1-0.2,20.2-0.2s10.1,0.2,20.2,0.2c10.1,0,10.1-1.1,20.2-1.1c10.1,0,10.1-0.4,20.2-0.4c10.1,0,10.1,0.1,20.2,0.1
		c10.1,0,10.1,0.2,20.2,0.2c10.1,0,10.1,2,20.2,2c10.1,0,10.1-1.1,20.2-1.1c10.1,0,10.1-1.1,20.2-1.1c10.1,0,10.1,0.2,20.2,0.2
		c10.1,0,10.1,0.7,20.2,0.7c10.1,0,10.1,1.5,20.2,1.5s10.1,0.4,20.2,0.4c10.1,0,10.1-0.6,20.2-0.6c10.1,0,10.1-0.8,20.2-0.8
		c10.1,0,10.1,0.9,20.2,0.9c10.1,0,10.1-1.1,20.2-1.1c10.1,0,10.1,0.6,20.2,0.6c10.1,0,10.1,0.4,20.2,0.4c10.1,0,10.1,0.4,20.2,0.4
		c10.1,0,10.1-0.8,20.2-0.8c10.1,0,10.1-0.7,20.2-0.7c10.1,0,10.1-0.6,20.2-0.6c10.1,0,10.1-0.4,20.2-0.4c10.1,0,10.1,1.1,20.2,1.1
		c10.1,0,10.1,0.8,20.2,0.8c10.1,0,10.1-0.1,20.2-0.1c10.1,0,10.1-0.7,20.2-0.7c10.1,0,10.1-0.3,20.2-0.3c10.1,0,10.1,0.4,20.2,0.4
		c10.1,0,19.7-1.9,20.6-0.3c0,0-0.8,10.6-0.8,20.8c0,10.2,1.5,10.2,1.5,20.4c0,10.2-0.5,10.2-0.5,20.4c0,10.2-0.3,10.2-0.3,20.4
		c0,10.2-1.4,10.2-1.4,20.4c0,10.2,1.8,10.2,1.8,20.4c0,10.2-1.7,10.2-1.7,20.4s-0.5,10.2-0.5,20.4c0,10.2,0.1,10.2,0.1,20.4
		c0,10.2,2.4,10.2,2.4,20.4c0,10.2-1.5,10.2-1.5,20.4c0,10.2,1.8,10.2,1.8,20.4s-2.1,10.2-2.1,20.4
		C762.7,310.5,764.6,310.5,764.6,320.7z" style="fill: rgb(95, 76, 69);"></path>
</g>
</svg>
