<!--?xml version="1.0" encoding="utf-8"?-->
<!-- Generator: Adobe Illustrator 22.1.0, SVG Export Plug-In . SVG Version: 6.00 Build 0)  -->
<svg version="1.1" id="_x34_" xmlns="http://www.w3.org/2000/svg" xmlns:xlink="http://www.w3.org/1999/xlink" x="0px" y="0px" viewBox="0 0 800 800" style="width: 300px;" xml:space="preserve">
<style type="text/css">
	.st0{fill:#5C1F13;}
</style>
<g>
	<polygon class="st0" points="792.8,7.2 792.8,7.2 792.8,7.2 	" style="fill: rgb(95, 76, 69);"></polygon>
	<path class="st0" d="M774.4,669.5V472.2c0,0,0-16.2,0-17.7c0-0.9,0.2-2.6,0.8-4.7c0.9-3.7,2.6-8.7,4.7-13.9
		c3.1-7.9,6.8-16.5,9.8-23.1c1.5-3.3,2.8-6.1,3.7-8.1c0.5-1,0.8-1.8,1.1-2.3c0.3-0.5,0.4-0.8,0.4-0.8l0.8-1.7l-0.8-1.7
		c0,0-0.1-0.2-0.2-0.5c-1.1-2.4-6.3-13.1-11.1-24.6c-2.4-5.7-4.8-11.6-6.5-16.7c-0.9-2.5-1.6-4.8-2-6.8c-0.5-1.9-0.7-3.5-0.7-4.3
		c0-0.8,0-5.2,0-9.5c0-2.1,0-4.2,0-5.7c0-1.5,0-2.5,0-2.6V130.5L795.8,17v0c0.1-0.7,0.2-1.4,0.2-2c0-2.9-1.1-5.7-3.2-7.8
		C790.7,5.1,787.9,4,785,4c-0.7,0-1.4,0.1-2,0.2l0,0L669.5,25.6H472.2c0,0-16.2,0-17.7,0c-0.9,0-2.6-0.2-4.7-0.8
		c-3.7-0.9-8.6-2.6-13.9-4.7c-7.9-3.1-16.5-6.8-23.1-9.8c-3.3-1.5-6.1-2.8-8.1-3.7c-1-0.5-1.8-0.8-2.3-1.1c-0.5-0.3-0.8-0.4-0.8-0.4
		L400,4.3l-1.7,0.8c0,0-0.2,0.1-0.5,0.2c-2.4,1.1-13.1,6.3-24.6,11.1c-5.7,2.4-11.6,4.8-16.7,6.5c-2.5,0.9-4.8,1.6-6.8,2
		c-1.9,0.5-3.5,0.7-4.3,0.7c-0.8,0-5.2,0-9.5,0c-2.1,0-4.2,0-5.7,0c-1.5,0-2.5,0-2.5,0H130.5L17,4.2l0,0C16.3,4.1,15.7,4,15,4
		c-2.9,0-5.7,1.1-7.8,3.2l0,0C5.1,9.3,4,12.1,4,15c0,0.7,0.1,1.4,0.2,2l21.4,113.5v197.3c0,0,0,1,0,2.5c0,4.6,0,14,0,15.2
		c0,0.9-0.2,2.6-0.8,4.7c-0.9,3.7-2.6,8.7-4.7,13.9c-3.1,7.9-6.8,16.5-9.8,23.1c-1.5,3.3-2.8,6.1-3.7,8.1c-0.5,1-0.8,1.8-1.1,2.3
		c-0.3,0.5-0.4,0.8-0.4,0.8L4.3,400l0.8,1.7c0,0,0.1,0.2,0.2,0.5c1.1,2.4,6.3,13.1,11.1,24.6c2.4,5.7,4.8,11.6,6.5,16.7
		c0.9,2.5,1.6,4.8,2,6.8c0.5,1.9,0.7,3.5,0.7,4.3c0,1.6,0,17.7,0,17.7v197.3L4.2,783l0,0c-0.1,0.7-0.2,1.4-0.2,2
		c0,2.9,1.1,5.7,3.2,7.8l0,0c2.1,2.1,4.9,3.2,7.8,3.2c0.7,0,1.4-0.1,2-0.2l113.5-21.4h197.3c0,0,1,0,2.5,0c4.6,0,14,0,15.2,0
		c0.9,0,2.6,0.2,4.7,0.8c3.7,0.9,8.6,2.6,13.9,4.7c7.9,3.1,16.5,6.8,23.1,9.8c3.3,1.5,6.1,2.8,8.1,3.7c1,0.5,1.8,0.8,2.3,1.1
		c0.5,0.3,0.8,0.4,0.8,0.4l1.7,0.8l1.7-0.8c0,0,0.2-0.1,0.5-0.2c2.4-1.1,13.1-6.3,24.6-11.1c5.7-2.4,11.6-4.8,16.7-6.5
		c2.5-0.9,4.8-1.6,6.8-2c1.9-0.5,3.5-0.7,4.3-0.7c1.6,0,17.7,0,17.7,0l197.3,0L783,795.8l0,0c0.7,0.1,1.3,0.2,2,0.2
		c2.9,0,5.7-1.1,7.8-3.2c2.1-2.1,3.2-4.9,3.2-7.8c0-0.7-0.1-1.4-0.2-2L774.4,669.5z M787.4,787.4c-0.6,0.6-1.5,1-2.4,1
		c-0.2,0-0.4,0-0.6-0.1l-114.2-21.6h-198c0,0-16.2,0-17.7,0c-2,0-4.1,0.4-6.5,1c-4.2,1.1-9.4,2.9-14.8,5
		c-13.3,5.2-28.3,12.2-33.2,14.5c-3.5-1.7-12-5.7-21.5-9.7c-6.1-2.6-12.7-5.3-18.4-7.3c-2.9-1-5.6-1.9-8-2.5c-2.4-0.6-4.6-1-6.5-1
		c-0.8,0-5.2,0-9.5,0c-2.1,0-4.2,0-5.7,0c-1.5,0-2.5,0-2.5,0h-198L15.6,788.3c-0.2,0-0.4,0.1-0.6,0.1c-0.9,0-1.8-0.4-2.4-1l0,0
		c-0.6-0.6-1-1.5-1-2.4c0-0.2,0-0.4,0.1-0.6l0,0l21.6-114.2v-198c0,0,0-4,0-8.3c0-4.2,0-8.7,0-9.5c0-2-0.4-4.1-1-6.5
		c-1.1-4.2-2.9-9.4-5-14.8c-5.2-13.3-12.2-28.3-14.5-33.2c1.7-3.5,5.7-12,9.7-21.5c2.6-6.1,5.3-12.7,7.3-18.4c1-2.9,1.9-5.6,2.5-8
		c0.6-2.4,1-4.6,1-6.5c0-0.8,0-5.2,0-9.5c0-2.1,0-4.2,0-5.7c0-1.5,0-2.5,0-2.5v-198L11.7,15.6c0-0.2-0.1-0.4-0.1-0.6
		c0-0.9,0.4-1.7,1-2.4l0,0c0.6-0.6,1.5-1,2.4-1c0.2,0,0.4,0,0.6,0.1l0,0l114.2,21.6h198c0,0,1,0,2.5,0c4.6,0,14,0,15.2,0
		c2,0,4.1-0.4,6.5-1c4.2-1.1,9.4-2.9,14.8-5c13.3-5.2,28.3-12.2,33.2-14.5c3.5,1.7,12,5.7,21.5,9.7c6.1,2.6,12.7,5.3,18.4,7.3
		c2.9,1,5.6,1.9,8,2.5c2.4,0.6,4.6,1,6.5,1c1.6,0,17.7,0,17.7,0l198,0l114.2-21.6h0c0.2,0,0.4-0.1,0.6-0.1c0.9,0,1.8,0.3,2.4,1l0,0
		c0.6,0.6,1,1.5,1,2.4c0,0.2,0,0.4-0.1,0.6l0,0l-21.6,114.2v0.4v197.6c0,0,0,1,0,2.6c0,4.6,0,14,0,15.2c0,2,0.4,4.1,1,6.5
		c1.1,4.2,2.9,9.4,5,14.8c5.2,13.3,12.2,28.3,14.5,33.2c-1.7,3.5-5.7,12-9.7,21.5c-2.6,6.1-5.3,12.7-7.3,18.4c-1,2.9-1.9,5.6-2.5,8
		c-0.6,2.4-1,4.6-1,6.5c0,1.6,0,17.7,0,17.7v198l21.6,114.2c0,0.2,0.1,0.4,0.1,0.6C788.4,785.9,788,786.8,787.4,787.4z" style="fill: rgb(95, 76, 69);"></path>
	<path class="st0" d="M750.3,454.5c0-2.2,0.4-5,1.1-8.4c2.2-10.2,8-25.3,17.1-45l0.5-1.1l-0.5-1.1c-6.1-13.1-10.7-24.2-13.7-33.2
		c-1.5-4.5-2.7-8.4-3.4-11.8c-0.7-3.4-1.1-6.2-1.1-8.4V128.2l18.3-96.8l-96.8,18.3H454.5c-2.2,0-5-0.4-8.4-1.1
		c-10.2-2.2-25.3-8-45-17.1L400,31l-1.1,0.5c-13.1,6.1-24.2,10.7-33.2,13.7c-4.5,1.5-8.4,2.7-11.8,3.4c-3.4,0.7-6.2,1.1-8.4,1.1
		l-217.3,0L31.4,31.4l18.3,96.8v217.3c0,2.2-0.4,5-1.1,8.4c-2.2,10.2-8,25.3-17.1,45L31,400l0.5,1.1c6.1,13.1,10.7,24.2,13.7,33.2
		c1.5,4.5,2.7,8.4,3.4,11.8c0.7,3.4,1.1,6.2,1.1,8.4v217.3l-18.3,96.8l96.8-18.3h217.3c2.2,0,5,0.4,8.4,1.1c10.2,2.2,25.3,8,45,17.1
		l1.1,0.5l1.1-0.5c13.1-6.1,24.2-10.7,33.2-13.7c4.5-1.5,8.4-2.7,11.8-3.4c3.4-0.7,6.2-1.1,8.4-1.1h217.3l96.8,18.3l-18.3-96.8
		L750.3,454.5L750.3,454.5z M762.2,762.2l-90-17H454.5c-2.7,0-5.9,0.4-9.5,1.2c-10.7,2.4-25.7,8-45,17
		c-12.8-5.9-23.6-10.4-32.6-13.4c-4.6-1.6-8.7-2.7-12.4-3.5c-3.6-0.8-6.8-1.2-9.5-1.2l-217.8,0l-90,17l17-90V454.5
		c0-2.7-0.4-5.9-1.2-9.5c-2.4-10.7-8-25.7-17-45c5.9-12.8,10.4-23.6,13.4-32.6c1.6-4.6,2.7-8.7,3.5-12.4c0.8-3.6,1.2-6.8,1.2-9.5
		V127.8l-17-90l90,17h217.8c2.7,0,5.9-0.4,9.5-1.2c10.7-2.4,25.7-8,45-17c12.8,5.9,23.6,10.4,32.6,13.4c4.6,1.6,8.7,2.7,12.4,3.5
		c3.6,0.8,6.8,1.2,9.5,1.2l217.8,0l90-17l-17,90v217.8c0,2.7,0.4,5.9,1.2,9.5c2.4,10.7,8,25.7,17,45c-5.9,12.8-10.4,23.6-13.4,32.6
		c-1.6,4.6-2.7,8.7-3.5,12.4c-0.8,3.6-1.2,6.8-1.2,9.5v217.8L762.2,762.2z" style="fill: rgb(95, 76, 69);"></path>
	<path class="st0" d="M132.7,667.3h2.5h532.1V132.7H132.7L132.7,667.3L132.7,667.3z M662.3,137.7v524.5l-524.5,0V137.7H662.3z" style="fill: rgb(95, 76, 69);"></path>
	<polygon class="st0" points="163.7,151.8 163.7,139.2 161.8,139.2 159.8,139.2 159.8,151.8 161.8,151.8 	" style="fill: rgb(95, 76, 69);"></polygon>
	<rect x="151.8" y="139.2" class="st0" width="1.9" height="12.7" style="fill: rgb(95, 76, 69);"></rect>
	<polygon class="st0" points="173.6,151.8 173.6,139.2 171.7,139.2 169.8,139.2 169.8,151.8 171.7,151.8 	" style="fill: rgb(95, 76, 69);"></polygon>
	<polygon class="st0" points="183.6,151.8 183.6,139.2 181.6,139.2 179.7,139.2 179.7,151.8 181.6,151.8 	" style="fill: rgb(95, 76, 69);"></polygon>
	<polygon class="st0" points="193.5,151.8 193.5,139.2 191.5,139.2 189.6,139.2 189.6,151.8 191.5,151.8 	" style="fill: rgb(95, 76, 69);"></polygon>
	<polygon class="st0" points="203.4,151.8 203.4,139.2 201.5,139.2 199.5,139.2 199.5,151.8 201.5,151.8 	" style="fill: rgb(95, 76, 69);"></polygon>
	<polygon class="st0" points="213.3,151.8 213.3,139.2 211.4,139.2 209.5,139.2 209.5,151.8 211.4,151.8 	" style="fill: rgb(95, 76, 69);"></polygon>
	<polygon class="st0" points="223.3,151.8 223.3,139.2 221.3,139.2 219.4,139.2 219.4,151.8 221.3,151.8 	" style="fill: rgb(95, 76, 69);"></polygon>
	<polygon class="st0" points="233.2,151.8 233.2,139.2 231.3,139.2 229.3,139.2 229.3,151.8 231.3,151.8 	" style="fill: rgb(95, 76, 69);"></polygon>
	<polygon class="st0" points="243.1,151.8 243.1,139.2 241.2,139.2 239.2,139.2 239.2,151.8 241.2,151.8 	" style="fill: rgb(95, 76, 69);"></polygon>
	<polygon class="st0" points="253.1,151.8 253.1,139.2 251.1,139.2 249.2,139.2 249.2,151.8 251.1,151.8 	" style="fill: rgb(95, 76, 69);"></polygon>
	<polygon class="st0" points="263,151.8 263,139.2 261,139.2 259.1,139.2 259.1,151.8 261,151.8 	" style="fill: rgb(95, 76, 69);"></polygon>
	<polygon class="st0" points="272.9,151.8 272.9,139.2 271,139.2 269,139.2 269,151.8 271,151.8 	" style="fill: rgb(95, 76, 69);"></polygon>
	<polygon class="st0" points="282.8,151.8 282.8,139.2 280.9,139.2 278.9,139.2 278.9,151.8 280.9,151.8 	" style="fill: rgb(95, 76, 69);"></polygon>
	<polygon class="st0" points="292.8,151.8 292.8,139.2 290.8,139.2 288.9,139.2 288.9,151.8 290.8,151.8 	" style="fill: rgb(95, 76, 69);"></polygon>
	<polygon class="st0" points="302.7,151.8 302.7,139.2 300.7,139.2 298.8,139.2 298.8,151.8 300.7,151.8 	" style="fill: rgb(95, 76, 69);"></polygon>
	<polygon class="st0" points="312.6,151.8 312.6,139.2 310.7,139.2 308.7,139.2 308.7,151.8 310.7,151.8 	" style="fill: rgb(95, 76, 69);"></polygon>
	<polygon class="st0" points="322.5,151.8 322.5,139.2 320.6,139.2 318.6,139.2 318.6,151.8 320.6,151.8 	" style="fill: rgb(95, 76, 69);"></polygon>
	<polygon class="st0" points="332.5,151.8 332.5,139.2 330.5,139.2 328.6,139.2 328.6,151.8 330.5,151.8 	" style="fill: rgb(95, 76, 69);"></polygon>
	<polygon class="st0" points="342.4,151.8 342.4,139.2 340.4,139.2 338.5,139.2 338.5,151.8 340.4,151.8 	" style="fill: rgb(95, 76, 69);"></polygon>
	<polygon class="st0" points="352.3,151.8 352.3,139.2 350.4,139.2 348.4,139.2 348.4,151.8 350.4,151.8 	" style="fill: rgb(95, 76, 69);"></polygon>
	<polygon class="st0" points="362.2,151.8 362.2,139.2 360.3,139.2 358.4,139.2 358.4,151.8 360.3,151.8 	" style="fill: rgb(95, 76, 69);"></polygon>
	<polygon class="st0" points="372.2,151.8 372.2,139.2 370.2,139.2 368.3,139.2 368.3,151.8 370.2,151.8 	" style="fill: rgb(95, 76, 69);"></polygon>
	<polygon class="st0" points="382.1,151.8 382.1,139.2 380.1,139.2 378.2,139.2 378.2,151.8 380.1,151.8 	" style="fill: rgb(95, 76, 69);"></polygon>
	<polygon class="st0" points="392,151.8 392,139.2 390.1,139.2 388.1,139.2 388.1,151.8 390.1,151.8 	" style="fill: rgb(95, 76, 69);"></polygon>
	<polygon class="st0" points="401.9,151.8 401.9,139.2 400,139.2 398.1,139.2 398.1,151.8 400,151.8 	" style="fill: rgb(95, 76, 69);"></polygon>
	<polygon class="st0" points="411.9,151.8 411.9,139.2 409.9,139.2 408,139.2 408,151.8 409.9,151.8 	" style="fill: rgb(95, 76, 69);"></polygon>
	<polygon class="st0" points="421.8,151.8 421.8,139.2 419.9,139.2 417.9,139.2 417.9,151.8 419.9,151.8 	" style="fill: rgb(95, 76, 69);"></polygon>
	<polygon class="st0" points="431.7,151.8 431.7,139.2 429.8,139.2 427.8,139.2 427.8,151.8 429.8,151.8 	" style="fill: rgb(95, 76, 69);"></polygon>
	<polygon class="st0" points="441.6,151.8 441.6,139.2 439.7,139.2 437.8,139.2 437.8,151.8 439.7,151.8 	" style="fill: rgb(95, 76, 69);"></polygon>
	<polygon class="st0" points="451.6,151.8 451.6,139.2 449.6,139.2 447.7,139.2 447.7,151.8 449.6,151.8 	" style="fill: rgb(95, 76, 69);"></polygon>
	<polygon class="st0" points="461.5,151.8 461.5,139.2 459.6,139.2 457.6,139.2 457.6,151.8 459.6,151.8 	" style="fill: rgb(95, 76, 69);"></polygon>
	<polygon class="st0" points="471.4,151.8 471.4,139.2 469.5,139.2 467.5,139.2 467.5,151.8 469.5,151.8 	" style="fill: rgb(95, 76, 69);"></polygon>
	<polygon class="st0" points="481.4,151.8 481.4,139.2 479.4,139.2 477.5,139.2 477.5,151.8 479.4,151.8 	" style="fill: rgb(95, 76, 69);"></polygon>
	<polygon class="st0" points="491.3,151.8 491.3,139.2 489.3,139.2 487.4,139.2 487.4,151.8 489.3,151.8 	" style="fill: rgb(95, 76, 69);"></polygon>
	<polygon class="st0" points="501.2,151.8 501.2,139.2 499.3,139.2 497.3,139.2 497.3,151.8 499.3,151.8 	" style="fill: rgb(95, 76, 69);"></polygon>
	<polygon class="st0" points="511.1,151.8 511.1,139.2 509.2,139.2 507.2,139.2 507.2,151.8 509.2,151.8 	" style="fill: rgb(95, 76, 69);"></polygon>
	<polygon class="st0" points="521.1,151.8 521.1,139.2 519.1,139.2 517.2,139.2 517.2,151.8 519.1,151.8 	" style="fill: rgb(95, 76, 69);"></polygon>
	<polygon class="st0" points="531,151.8 531,139.2 529,139.2 527.1,139.2 527.1,151.8 529,151.8 	" style="fill: rgb(95, 76, 69);"></polygon>
	<polygon class="st0" points="540.9,151.8 540.9,139.2 539,139.2 537,139.2 537,151.8 539,151.8 	" style="fill: rgb(95, 76, 69);"></polygon>
	<polygon class="st0" points="550.8,151.8 550.8,139.2 548.9,139.2 547,139.2 547,151.8 548.9,151.8 	" style="fill: rgb(95, 76, 69);"></polygon>
	<polygon class="st0" points="560.8,151.8 560.8,139.2 558.8,139.2 556.9,139.2 556.9,151.8 558.8,151.8 	" style="fill: rgb(95, 76, 69);"></polygon>
	<polygon class="st0" points="570.7,151.8 570.7,139.2 568.7,139.2 566.8,139.2 566.8,151.8 568.7,151.8 	" style="fill: rgb(95, 76, 69);"></polygon>
	<polygon class="st0" points="580.6,151.8 580.6,139.2 578.7,139.2 576.7,139.2 576.7,151.8 578.7,151.8 	" style="fill: rgb(95, 76, 69);"></polygon>
	<polygon class="st0" points="590.5,151.8 590.5,139.2 588.6,139.2 586.7,139.2 586.7,151.8 588.6,151.8 	" style="fill: rgb(95, 76, 69);"></polygon>
	<polygon class="st0" points="600.5,151.8 600.5,139.2 598.5,139.2 596.6,139.2 596.6,151.8 598.5,151.8 	" style="fill: rgb(95, 76, 69);"></polygon>
	<polygon class="st0" points="610.4,151.8 610.4,139.2 608.5,139.2 606.5,139.2 606.5,151.8 608.5,151.8 	" style="fill: rgb(95, 76, 69);"></polygon>
	<polygon class="st0" points="620.3,151.8 620.3,139.2 618.4,139.2 616.4,139.2 616.4,151.8 618.4,151.8 	" style="fill: rgb(95, 76, 69);"></polygon>
	<polygon class="st0" points="630.2,151.8 630.2,139.2 628.3,139.2 626.4,139.2 626.4,151.8 628.3,151.8 	" style="fill: rgb(95, 76, 69);"></polygon>
	<polygon class="st0" points="640.2,151.8 640.2,139.2 638.2,139.2 636.3,139.2 636.3,151.8 638.2,151.8 	" style="fill: rgb(95, 76, 69);"></polygon>
	<rect x="646.2" y="139.2" class="st0" width="1.9" height="12.7" style="fill: rgb(95, 76, 69);"></rect>
	<polygon class="st0" points="648.2,161.8 648.2,163.7 660.8,163.7 660.8,161.8 660.8,159.8 648.2,159.8 	" style="fill: rgb(95, 76, 69);"></polygon>
	<rect x="648.2" y="151.8" class="st0" width="12.7" height="1.9" style="fill: rgb(95, 76, 69);"></rect>
	<polygon class="st0" points="648.2,171.7 648.2,173.6 660.8,173.6 660.8,171.7 660.8,169.8 648.2,169.8 	" style="fill: rgb(95, 76, 69);"></polygon>
	<polygon class="st0" points="648.2,181.6 648.2,183.6 660.8,183.6 660.8,181.6 660.8,179.7 648.2,179.7 	" style="fill: rgb(95, 76, 69);"></polygon>
	<polygon class="st0" points="648.2,191.5 648.2,193.5 660.8,193.5 660.8,191.5 660.8,189.6 648.2,189.6 	" style="fill: rgb(95, 76, 69);"></polygon>
	<polygon class="st0" points="648.2,201.5 648.2,203.4 660.8,203.4 660.8,201.5 660.8,199.5 648.2,199.5 	" style="fill: rgb(95, 76, 69);"></polygon>
	<polygon class="st0" points="648.2,211.4 648.2,213.3 660.8,213.3 660.8,211.4 660.8,209.5 648.2,209.5 	" style="fill: rgb(95, 76, 69);"></polygon>
	<polygon class="st0" points="648.2,221.3 648.2,223.3 660.8,223.3 660.8,221.3 660.8,219.4 648.2,219.4 	" style="fill: rgb(95, 76, 69);"></polygon>
	<polygon class="st0" points="648.2,231.3 648.2,233.2 660.8,233.2 660.8,231.3 660.8,229.3 648.2,229.3 	" style="fill: rgb(95, 76, 69);"></polygon>
	<polygon class="st0" points="648.2,241.2 648.2,243.1 660.8,243.1 660.8,241.2 660.8,239.2 648.2,239.2 	" style="fill: rgb(95, 76, 69);"></polygon>
	<polygon class="st0" points="648.2,251.1 648.2,253.1 660.8,253.1 660.8,251.1 660.8,249.2 648.2,249.2 	" style="fill: rgb(95, 76, 69);"></polygon>
	<polygon class="st0" points="648.2,261 648.2,263 660.8,263 660.8,261 660.8,259.1 648.2,259.1 	" style="fill: rgb(95, 76, 69);"></polygon>
	<polygon class="st0" points="648.2,271 648.2,272.9 660.8,272.9 660.8,271 660.8,269 648.2,269 	" style="fill: rgb(95, 76, 69);"></polygon>
	<polygon class="st0" points="648.2,280.9 648.2,282.8 660.8,282.8 660.8,280.9 660.8,278.9 648.2,278.9 	" style="fill: rgb(95, 76, 69);"></polygon>
	<polygon class="st0" points="648.2,290.8 648.2,292.8 660.8,292.8 660.8,290.8 660.8,288.9 648.2,288.9 	" style="fill: rgb(95, 76, 69);"></polygon>
	<polygon class="st0" points="648.2,300.7 648.2,302.7 660.8,302.7 660.8,300.7 660.8,298.8 648.2,298.8 	" style="fill: rgb(95, 76, 69);"></polygon>
	<polygon class="st0" points="648.2,310.7 648.2,312.6 660.8,312.6 660.8,310.7 660.8,308.7 648.2,308.7 	" style="fill: rgb(95, 76, 69);"></polygon>
	<polygon class="st0" points="648.2,320.6 648.2,322.5 660.8,322.5 660.8,320.6 660.8,318.6 648.2,318.6 	" style="fill: rgb(95, 76, 69);"></polygon>
	<polygon class="st0" points="648.2,330.5 648.2,332.5 660.8,332.5 660.8,330.5 660.8,328.6 648.2,328.6 	" style="fill: rgb(95, 76, 69);"></polygon>
	<polygon class="st0" points="648.2,340.4 648.2,342.4 660.8,342.4 660.8,340.4 660.8,338.5 648.2,338.5 	" style="fill: rgb(95, 76, 69);"></polygon>
	<polygon class="st0" points="648.2,350.4 648.2,352.3 660.8,352.3 660.8,350.4 660.8,348.4 648.2,348.4 	" style="fill: rgb(95, 76, 69);"></polygon>
	<polygon class="st0" points="648.2,360.3 648.2,362.2 660.8,362.2 660.8,360.3 660.8,358.4 648.2,358.4 	" style="fill: rgb(95, 76, 69);"></polygon>
	<polygon class="st0" points="648.2,370.2 648.2,372.2 660.8,372.2 660.8,370.2 660.8,368.3 648.2,368.3 	" style="fill: rgb(95, 76, 69);"></polygon>
	<polygon class="st0" points="648.2,380.1 648.2,382.1 660.8,382.1 660.8,380.1 660.8,378.2 648.2,378.2 	" style="fill: rgb(95, 76, 69);"></polygon>
	<polygon class="st0" points="648.2,390.1 648.2,392 660.8,392 660.8,390.1 660.8,388.1 648.2,388.1 	" style="fill: rgb(95, 76, 69);"></polygon>
	<polygon class="st0" points="648.2,400 648.2,401.9 660.8,401.9 660.8,400 660.8,398.1 648.2,398.1 	" style="fill: rgb(95, 76, 69);"></polygon>
	<polygon class="st0" points="648.2,409.9 648.2,411.9 660.8,411.9 660.8,409.9 660.8,408 648.2,408 	" style="fill: rgb(95, 76, 69);"></polygon>
	<polygon class="st0" points="648.2,419.9 648.2,421.8 660.8,421.8 660.8,419.9 660.8,417.9 648.2,417.9 	" style="fill: rgb(95, 76, 69);"></polygon>
	<polygon class="st0" points="648.2,429.8 648.2,431.7 660.8,431.7 660.8,429.8 660.8,427.8 648.2,427.8 	" style="fill: rgb(95, 76, 69);"></polygon>
	<polygon class="st0" points="648.2,439.7 648.2,441.6 660.8,441.6 660.8,439.7 660.8,437.8 648.2,437.8 	" style="fill: rgb(95, 76, 69);"></polygon>
	<polygon class="st0" points="648.2,449.6 648.2,451.6 660.8,451.6 660.8,449.6 660.8,447.7 648.2,447.7 	" style="fill: rgb(95, 76, 69);"></polygon>
	<polygon class="st0" points="648.2,459.6 648.2,461.5 660.8,461.5 660.8,459.6 660.8,457.6 648.2,457.6 	" style="fill: rgb(95, 76, 69);"></polygon>
	<polygon class="st0" points="648.2,469.5 648.2,471.4 660.8,471.4 660.8,469.5 660.8,467.5 648.2,467.5 	" style="fill: rgb(95, 76, 69);"></polygon>
	<polygon class="st0" points="648.2,479.4 648.2,481.4 660.8,481.4 660.8,479.4 660.8,477.5 648.2,477.5 	" style="fill: rgb(95, 76, 69);"></polygon>
	<polygon class="st0" points="648.2,489.3 648.2,491.3 660.8,491.3 660.8,489.3 660.8,487.4 648.2,487.4 	" style="fill: rgb(95, 76, 69);"></polygon>
	<polygon class="st0" points="648.2,499.3 648.2,501.2 660.8,501.2 660.8,499.3 660.8,497.3 648.2,497.3 	" style="fill: rgb(95, 76, 69);"></polygon>
	<polygon class="st0" points="648.2,509.2 648.2,511.1 660.8,511.1 660.8,509.2 660.8,507.2 648.2,507.2 	" style="fill: rgb(95, 76, 69);"></polygon>
	<polygon class="st0" points="648.2,519.1 648.2,521.1 660.8,521.1 660.8,519.1 660.8,517.2 648.2,517.2 	" style="fill: rgb(95, 76, 69);"></polygon>
	<polygon class="st0" points="648.2,529 648.2,531 660.8,531 660.8,529 660.8,527.1 648.2,527.1 	" style="fill: rgb(95, 76, 69);"></polygon>
	<polygon class="st0" points="648.2,539 648.2,540.9 660.8,540.9 660.8,539 660.8,537 648.2,537 	" style="fill: rgb(95, 76, 69);"></polygon>
	<polygon class="st0" points="648.2,548.9 648.2,550.8 660.8,550.8 660.8,548.9 660.8,547 648.2,547 	" style="fill: rgb(95, 76, 69);"></polygon>
	<polygon class="st0" points="648.2,558.8 648.2,560.8 660.8,560.8 660.8,558.8 660.8,556.9 648.2,556.9 	" style="fill: rgb(95, 76, 69);"></polygon>
	<polygon class="st0" points="648.2,568.7 648.2,570.7 660.8,570.7 660.8,568.7 660.8,566.8 648.2,566.8 	" style="fill: rgb(95, 76, 69);"></polygon>
	<polygon class="st0" points="648.2,578.7 648.2,580.6 660.8,580.6 660.8,578.7 660.8,576.7 648.2,576.7 	" style="fill: rgb(95, 76, 69);"></polygon>
	<polygon class="st0" points="648.2,588.6 648.2,590.5 660.8,590.5 660.8,588.6 660.8,586.7 648.2,586.7 	" style="fill: rgb(95, 76, 69);"></polygon>
	<polygon class="st0" points="648.2,598.5 648.2,600.5 660.8,600.5 660.8,598.5 660.8,596.6 648.2,596.6 	" style="fill: rgb(95, 76, 69);"></polygon>
	<polygon class="st0" points="648.2,608.5 648.2,610.4 660.8,610.4 660.8,608.5 660.8,606.5 648.2,606.5 	" style="fill: rgb(95, 76, 69);"></polygon>
	<polygon class="st0" points="648.2,618.4 648.2,620.3 660.8,620.3 660.8,618.4 660.8,616.4 648.2,616.4 	" style="fill: rgb(95, 76, 69);"></polygon>
	<polygon class="st0" points="648.2,628.3 648.2,630.2 660.8,630.2 660.8,628.3 660.8,626.4 648.2,626.4 	" style="fill: rgb(95, 76, 69);"></polygon>
	<polygon class="st0" points="648.2,638.2 648.2,640.2 660.8,640.2 660.8,638.2 660.8,636.3 648.2,636.3 	" style="fill: rgb(95, 76, 69);"></polygon>
	<rect x="648.2" y="646.2" class="st0" width="12.7" height="1.9" style="fill: rgb(95, 76, 69);"></rect>
	<rect x="646.2" y="648.2" class="st0" width="1.9" height="12.7" style="fill: rgb(95, 76, 69);"></rect>
	<polygon class="st0" points="636.3,648.2 636.3,660.8 638.2,660.8 640.2,660.8 640.2,648.2 638.2,648.2 	" style="fill: rgb(95, 76, 69);"></polygon>
	<polygon class="st0" points="626.4,648.2 626.4,660.8 628.3,660.8 630.2,660.8 630.2,648.2 628.3,648.2 	" style="fill: rgb(95, 76, 69);"></polygon>
	<polygon class="st0" points="616.4,648.2 616.4,660.8 618.4,660.8 620.3,660.8 620.3,648.2 618.4,648.2 	" style="fill: rgb(95, 76, 69);"></polygon>
	<polygon class="st0" points="606.5,648.2 606.5,660.8 608.5,660.8 610.4,660.8 610.4,648.2 608.5,648.2 	" style="fill: rgb(95, 76, 69);"></polygon>
	<polygon class="st0" points="596.6,648.2 596.6,660.8 598.5,660.8 600.5,660.8 600.5,648.2 598.5,648.2 	" style="fill: rgb(95, 76, 69);"></polygon>
	<polygon class="st0" points="586.7,648.2 586.7,660.8 588.6,660.8 590.5,660.8 590.5,648.2 588.6,648.2 	" style="fill: rgb(95, 76, 69);"></polygon>
	<polygon class="st0" points="576.7,648.2 576.7,660.8 578.7,660.8 580.6,660.8 580.6,648.2 578.7,648.2 	" style="fill: rgb(95, 76, 69);"></polygon>
	<polygon class="st0" points="566.8,648.2 566.8,660.8 568.7,660.8 570.7,660.8 570.7,648.2 568.7,648.2 	" style="fill: rgb(95, 76, 69);"></polygon>
	<polygon class="st0" points="556.9,648.2 556.9,660.8 558.8,660.8 560.8,660.8 560.8,648.2 558.8,648.2 	" style="fill: rgb(95, 76, 69);"></polygon>
	<polygon class="st0" points="547,648.2 547,660.8 548.9,660.8 550.8,660.8 550.8,648.2 548.9,648.2 	" style="fill: rgb(95, 76, 69);"></polygon>
	<polygon class="st0" points="537,648.2 537,660.8 539,660.8 540.9,660.8 540.9,648.2 539,648.2 	" style="fill: rgb(95, 76, 69);"></polygon>
	<polygon class="st0" points="527.1,648.2 527.1,660.8 529,660.8 531,660.8 531,648.2 529,648.2 	" style="fill: rgb(95, 76, 69);"></polygon>
	<polygon class="st0" points="517.2,648.2 517.2,660.8 519.1,660.8 521.1,660.8 521.1,648.2 519.1,648.2 	" style="fill: rgb(95, 76, 69);"></polygon>
	<polygon class="st0" points="507.2,648.2 507.2,660.8 509.2,660.8 511.1,660.8 511.1,648.2 509.2,648.2 	" style="fill: rgb(95, 76, 69);"></polygon>
	<polygon class="st0" points="497.3,648.2 497.3,660.8 499.3,660.8 501.2,660.8 501.2,648.2 499.3,648.2 	" style="fill: rgb(95, 76, 69);"></polygon>
	<polygon class="st0" points="487.4,648.2 487.4,660.8 489.3,660.8 491.3,660.8 491.3,648.2 489.3,648.2 	" style="fill: rgb(95, 76, 69);"></polygon>
	<polygon class="st0" points="477.5,648.2 477.5,660.8 479.4,660.8 481.4,660.8 481.4,648.2 479.4,648.2 	" style="fill: rgb(95, 76, 69);"></polygon>
	<polygon class="st0" points="467.5,648.2 467.5,660.8 469.5,660.8 471.4,660.8 471.4,648.2 469.5,648.2 	" style="fill: rgb(95, 76, 69);"></polygon>
	<polygon class="st0" points="457.6,648.2 457.6,660.8 459.6,660.8 461.5,660.8 461.5,648.2 459.6,648.2 	" style="fill: rgb(95, 76, 69);"></polygon>
	<polygon class="st0" points="447.7,648.2 447.7,660.8 449.6,660.8 451.6,660.8 451.6,648.2 449.6,648.2 	" style="fill: rgb(95, 76, 69);"></polygon>
	<polygon class="st0" points="437.8,648.2 437.8,660.8 439.7,660.8 441.6,660.8 441.6,648.2 439.7,648.2 	" style="fill: rgb(95, 76, 69);"></polygon>
	<polygon class="st0" points="427.8,648.2 427.8,660.8 429.8,660.8 431.7,660.8 431.7,648.2 429.8,648.2 	" style="fill: rgb(95, 76, 69);"></polygon>
	<polygon class="st0" points="417.9,648.2 417.9,660.8 419.9,660.8 421.8,660.8 421.8,648.2 419.9,648.2 	" style="fill: rgb(95, 76, 69);"></polygon>
	<polygon class="st0" points="408,648.2 408,660.8 409.9,660.8 411.9,660.8 411.9,648.2 409.9,648.2 	" style="fill: rgb(95, 76, 69);"></polygon>
	<polygon class="st0" points="398.1,648.2 398.1,660.8 400,660.8 401.9,660.8 401.9,648.2 400,648.2 	" style="fill: rgb(95, 76, 69);"></polygon>
	<polygon class="st0" points="388.1,648.2 388.1,660.8 390.1,660.8 392,660.8 392,648.2 390.1,648.2 	" style="fill: rgb(95, 76, 69);"></polygon>
	<polygon class="st0" points="378.2,648.2 378.2,660.8 380.1,660.8 382.1,660.8 382.1,648.2 380.1,648.2 	" style="fill: rgb(95, 76, 69);"></polygon>
	<polygon class="st0" points="368.3,648.2 368.3,660.8 370.2,660.8 372.2,660.8 372.2,648.2 370.2,648.2 	" style="fill: rgb(95, 76, 69);"></polygon>
	<polygon class="st0" points="358.4,648.2 358.4,660.8 360.3,660.8 362.2,660.8 362.2,648.2 360.3,648.2 	" style="fill: rgb(95, 76, 69);"></polygon>
	<polygon class="st0" points="348.4,648.2 348.4,660.8 350.4,660.8 352.3,660.8 352.3,648.2 350.4,648.2 	" style="fill: rgb(95, 76, 69);"></polygon>
	<polygon class="st0" points="338.5,648.2 338.5,660.8 340.4,660.8 342.4,660.8 342.4,648.2 340.4,648.2 	" style="fill: rgb(95, 76, 69);"></polygon>
	<polygon class="st0" points="328.6,648.2 328.6,660.8 330.5,660.8 332.5,660.8 332.5,648.2 330.5,648.2 	" style="fill: rgb(95, 76, 69);"></polygon>
	<polygon class="st0" points="318.6,648.2 318.6,660.8 320.6,660.8 322.5,660.8 322.5,648.2 320.6,648.2 	" style="fill: rgb(95, 76, 69);"></polygon>
	<polygon class="st0" points="308.7,648.2 308.7,660.8 310.7,660.8 312.6,660.8 312.6,648.2 310.7,648.2 	" style="fill: rgb(95, 76, 69);"></polygon>
	<polygon class="st0" points="298.8,648.2 298.8,660.8 300.7,660.8 302.7,660.8 302.7,648.2 300.7,648.2 	" style="fill: rgb(95, 76, 69);"></polygon>
	<polygon class="st0" points="288.9,648.2 288.9,660.8 290.8,660.8 292.8,660.8 292.8,648.2 290.8,648.2 	" style="fill: rgb(95, 76, 69);"></polygon>
	<polygon class="st0" points="278.9,648.2 278.9,660.8 280.9,660.8 282.8,660.8 282.8,648.2 280.9,648.2 	" style="fill: rgb(95, 76, 69);"></polygon>
	<polygon class="st0" points="269,648.2 269,660.8 271,660.8 272.9,660.8 272.9,648.2 271,648.2 	" style="fill: rgb(95, 76, 69);"></polygon>
	<polygon class="st0" points="259.1,648.2 259.1,660.8 261,660.8 263,660.8 263,648.2 261,648.2 	" style="fill: rgb(95, 76, 69);"></polygon>
	<polygon class="st0" points="249.2,648.2 249.2,660.8 251.1,660.8 253.1,660.8 253.1,648.2 251.1,648.2 	" style="fill: rgb(95, 76, 69);"></polygon>
	<polygon class="st0" points="239.2,648.2 239.2,660.8 241.2,660.8 243.1,660.8 243.1,648.2 241.2,648.2 	" style="fill: rgb(95, 76, 69);"></polygon>
	<polygon class="st0" points="229.3,648.2 229.3,660.8 231.3,660.8 233.2,660.8 233.2,648.2 231.3,648.2 	" style="fill: rgb(95, 76, 69);"></polygon>
	<polygon class="st0" points="219.4,648.2 219.4,660.8 221.3,660.8 223.3,660.8 223.3,648.2 221.3,648.2 	" style="fill: rgb(95, 76, 69);"></polygon>
	<polygon class="st0" points="209.5,648.2 209.5,660.8 211.4,660.8 213.3,660.8 213.3,648.2 211.4,648.2 	" style="fill: rgb(95, 76, 69);"></polygon>
	<polygon class="st0" points="199.5,648.2 199.5,660.8 201.5,660.8 203.4,660.8 203.4,648.2 201.5,648.2 	" style="fill: rgb(95, 76, 69);"></polygon>
	<polygon class="st0" points="189.6,648.2 189.6,660.8 191.5,660.8 193.5,660.8 193.5,648.2 191.5,648.2 	" style="fill: rgb(95, 76, 69);"></polygon>
	<polygon class="st0" points="179.7,648.2 179.7,660.8 181.6,660.8 183.6,660.8 183.6,648.2 181.6,648.2 	" style="fill: rgb(95, 76, 69);"></polygon>
	<polygon class="st0" points="169.8,648.2 169.8,660.8 171.7,660.8 173.6,660.8 173.6,648.2 171.7,648.2 	" style="fill: rgb(95, 76, 69);"></polygon>
	<rect x="151.8" y="648.2" class="st0" width="1.9" height="12.7" style="fill: rgb(95, 76, 69);"></rect>
	<polygon class="st0" points="159.8,648.2 159.8,660.8 161.8,660.8 163.7,660.8 163.7,648.2 161.8,648.2 	" style="fill: rgb(95, 76, 69);"></polygon>
	<polygon class="st0" points="151.8,638.2 151.8,636.3 139.2,636.3 139.2,638.2 139.2,640.2 151.8,640.2 	" style="fill: rgb(95, 76, 69);"></polygon>
	<rect x="139.2" y="646.2" class="st0" width="12.7" height="1.9" style="fill: rgb(95, 76, 69);"></rect>
	<polygon class="st0" points="151.8,628.3 151.8,626.4 139.2,626.4 139.2,628.3 139.2,630.2 151.8,630.2 	" style="fill: rgb(95, 76, 69);"></polygon>
	<polygon class="st0" points="151.8,618.4 151.8,616.4 139.2,616.4 139.2,618.4 139.2,620.3 151.8,620.3 	" style="fill: rgb(95, 76, 69);"></polygon>
	<polygon class="st0" points="151.8,608.5 151.8,606.5 139.2,606.5 139.2,608.5 139.2,610.4 151.8,610.4 	" style="fill: rgb(95, 76, 69);"></polygon>
	<polygon class="st0" points="151.8,598.5 151.8,596.6 139.2,596.6 139.2,598.5 139.2,600.5 151.8,600.5 	" style="fill: rgb(95, 76, 69);"></polygon>
	<polygon class="st0" points="151.8,588.6 151.8,586.7 139.2,586.7 139.2,588.6 139.2,590.5 151.8,590.5 	" style="fill: rgb(95, 76, 69);"></polygon>
	<polygon class="st0" points="151.8,578.7 151.8,576.7 139.2,576.7 139.2,578.7 139.2,580.6 151.8,580.6 	" style="fill: rgb(95, 76, 69);"></polygon>
	<polygon class="st0" points="151.8,568.7 151.8,566.8 139.2,566.8 139.2,568.7 139.2,570.7 151.8,570.7 	" style="fill: rgb(95, 76, 69);"></polygon>
	<polygon class="st0" points="151.8,558.8 151.8,556.9 139.2,556.9 139.2,558.8 139.2,560.8 151.8,560.8 	" style="fill: rgb(95, 76, 69);"></polygon>
	<polygon class="st0" points="151.8,548.9 151.8,547 139.2,547 139.2,548.9 139.2,550.8 151.8,550.8 	" style="fill: rgb(95, 76, 69);"></polygon>
	<polygon class="st0" points="151.8,539 151.8,537 139.2,537 139.2,539 139.2,540.9 151.8,540.9 	" style="fill: rgb(95, 76, 69);"></polygon>
	<polygon class="st0" points="151.8,529 151.8,527.1 139.2,527.1 139.2,529 139.2,531 151.8,531 	" style="fill: rgb(95, 76, 69);"></polygon>
	<polygon class="st0" points="151.8,519.1 151.8,517.2 139.2,517.2 139.2,519.1 139.2,521.1 151.8,521.1 	" style="fill: rgb(95, 76, 69);"></polygon>
	<polygon class="st0" points="151.8,509.2 151.8,507.2 139.2,507.2 139.2,509.2 139.2,511.1 151.8,511.1 	" style="fill: rgb(95, 76, 69);"></polygon>
	<polygon class="st0" points="151.8,499.3 151.8,497.3 139.2,497.3 139.2,499.3 139.2,501.2 151.8,501.2 	" style="fill: rgb(95, 76, 69);"></polygon>
	<polygon class="st0" points="151.8,489.3 151.8,487.4 139.2,487.4 139.2,489.3 139.2,491.3 151.8,491.3 	" style="fill: rgb(95, 76, 69);"></polygon>
	<polygon class="st0" points="151.8,479.4 151.8,477.5 139.2,477.5 139.2,479.4 139.2,481.4 151.8,481.4 	" style="fill: rgb(95, 76, 69);"></polygon>
	<polygon class="st0" points="151.8,469.5 151.8,467.5 139.2,467.5 139.2,469.5 139.2,471.4 151.8,471.4 	" style="fill: rgb(95, 76, 69);"></polygon>
	<polygon class="st0" points="151.8,459.6 151.8,457.6 139.2,457.6 139.2,459.6 139.2,461.5 151.8,461.5 	" style="fill: rgb(95, 76, 69);"></polygon>
	<polygon class="st0" points="151.8,449.6 151.8,447.7 139.2,447.7 139.2,449.6 139.2,451.6 151.8,451.6 	" style="fill: rgb(95, 76, 69);"></polygon>
	<polygon class="st0" points="151.8,439.7 151.8,437.8 139.2,437.8 139.2,439.7 139.2,441.6 151.8,441.6 	" style="fill: rgb(95, 76, 69);"></polygon>
	<polygon class="st0" points="151.8,429.8 151.8,427.8 139.2,427.8 139.2,429.8 139.2,431.7 151.8,431.7 	" style="fill: rgb(95, 76, 69);"></polygon>
	<polygon class="st0" points="151.8,419.9 151.8,417.9 139.2,417.9 139.2,419.9 139.2,421.8 151.8,421.8 	" style="fill: rgb(95, 76, 69);"></polygon>
	<polygon class="st0" points="151.8,409.9 151.8,408 139.2,408 139.2,409.9 139.2,411.9 151.8,411.9 	" style="fill: rgb(95, 76, 69);"></polygon>
	<polygon class="st0" points="151.8,400 151.8,398.1 139.2,398.1 139.2,400 139.2,401.9 151.8,401.9 	" style="fill: rgb(95, 76, 69);"></polygon>
	<polygon class="st0" points="151.8,390.1 151.8,388.1 139.2,388.1 139.2,390.1 139.2,392 151.8,392 	" style="fill: rgb(95, 76, 69);"></polygon>
	<polygon class="st0" points="151.8,380.1 151.8,378.2 139.2,378.2 139.2,380.1 139.2,382.1 151.8,382.1 	" style="fill: rgb(95, 76, 69);"></polygon>
	<polygon class="st0" points="151.8,370.2 151.8,368.3 139.2,368.3 139.2,370.2 139.2,372.2 151.8,372.2 	" style="fill: rgb(95, 76, 69);"></polygon>
	<polygon class="st0" points="151.8,360.3 151.8,358.4 139.2,358.4 139.2,360.3 139.2,362.2 151.8,362.2 	" style="fill: rgb(95, 76, 69);"></polygon>
	<polygon class="st0" points="151.8,350.4 151.8,348.4 139.2,348.4 139.2,350.4 139.2,352.3 151.8,352.3 	" style="fill: rgb(95, 76, 69);"></polygon>
	<polygon class="st0" points="151.8,340.4 151.8,338.5 139.2,338.5 139.2,340.4 139.2,342.4 151.8,342.4 	" style="fill: rgb(95, 76, 69);"></polygon>
	<polygon class="st0" points="151.8,330.5 151.8,328.6 139.2,328.6 139.2,330.5 139.2,332.5 151.8,332.5 	" style="fill: rgb(95, 76, 69);"></polygon>
	<polygon class="st0" points="151.8,320.6 151.8,318.6 139.2,318.6 139.2,320.6 139.2,322.5 151.8,322.5 	" style="fill: rgb(95, 76, 69);"></polygon>
	<polygon class="st0" points="151.8,310.7 151.8,308.7 139.2,308.7 139.2,310.7 139.2,312.6 151.8,312.6 	" style="fill: rgb(95, 76, 69);"></polygon>
	<polygon class="st0" points="151.8,300.7 151.8,298.8 139.2,298.8 139.2,300.7 139.2,302.7 151.8,302.7 	" style="fill: rgb(95, 76, 69);"></polygon>
	<polygon class="st0" points="151.8,290.8 151.8,288.9 139.2,288.9 139.2,290.8 139.2,292.8 151.8,292.8 	" style="fill: rgb(95, 76, 69);"></polygon>
	<polygon class="st0" points="151.8,280.9 151.8,278.9 139.2,278.9 139.2,280.9 139.2,282.8 151.8,282.8 	" style="fill: rgb(95, 76, 69);"></polygon>
	<polygon class="st0" points="151.8,271 151.8,269 139.2,269 139.2,271 139.2,272.9 151.8,272.9 	" style="fill: rgb(95, 76, 69);"></polygon>
	<polygon class="st0" points="151.8,261 151.8,259.1 139.2,259.1 139.2,261 139.2,263 151.8,263 	" style="fill: rgb(95, 76, 69);"></polygon>
	<polygon class="st0" points="151.8,251.1 151.8,249.2 139.2,249.2 139.2,251.1 139.2,253.1 151.8,253.1 	" style="fill: rgb(95, 76, 69);"></polygon>
	<polygon class="st0" points="151.8,241.2 151.8,239.2 139.2,239.2 139.2,241.2 139.2,243.1 151.8,243.1 	" style="fill: rgb(95, 76, 69);"></polygon>
	<polygon class="st0" points="151.8,231.3 151.8,229.3 139.2,229.3 139.2,231.3 139.2,233.2 151.8,233.2 	" style="fill: rgb(95, 76, 69);"></polygon>
	<polygon class="st0" points="151.8,221.3 151.8,219.4 139.2,219.4 139.2,221.3 139.2,223.3 151.8,223.3 	" style="fill: rgb(95, 76, 69);"></polygon>
	<polygon class="st0" points="151.8,211.4 151.8,209.5 139.2,209.5 139.2,211.4 139.2,213.3 151.8,213.3 	" style="fill: rgb(95, 76, 69);"></polygon>
	<polygon class="st0" points="151.8,201.5 151.8,199.5 139.2,199.5 139.2,201.5 139.2,203.4 151.8,203.4 	" style="fill: rgb(95, 76, 69);"></polygon>
	<polygon class="st0" points="151.8,191.5 151.8,189.6 139.2,189.6 139.2,191.5 139.2,193.5 151.8,193.5 	" style="fill: rgb(95, 76, 69);"></polygon>
	<polygon class="st0" points="151.8,181.6 151.8,179.7 139.2,179.7 139.2,181.6 139.2,183.6 151.8,183.6 	" style="fill: rgb(95, 76, 69);"></polygon>
	<polygon class="st0" points="151.8,171.7 151.8,169.8 139.2,169.8 139.2,171.7 139.2,173.6 151.8,173.6 	" style="fill: rgb(95, 76, 69);"></polygon>
	<polygon class="st0" points="151.8,161.8 151.8,159.8 139.2,159.8 139.2,161.8 139.2,163.7 151.8,163.7 	" style="fill: rgb(95, 76, 69);"></polygon>
	<rect x="139.2" y="151.8" class="st0" width="12.7" height="1.9" style="fill: rgb(95, 76, 69);"></rect>
	<path class="st0" d="M645.8,642V154.2H154.2v491.6h491.6V642z M161.8,161.8h476.4v476.4H161.8V161.8z" style="fill: rgb(95, 76, 69);"></path>
	<path class="st0" d="M93.6,347.3c-0.1-0.5-0.5-0.9-0.9-0.9c-0.4,0-0.8,0.4-0.9,0.9c0,0-2.7,19.8-4.5,31.9
		c-1.8,12.1-9.4,20.8-9.4,20.8s7.6,8.7,9.4,20.8c1.8,12.1,4.5,31.9,4.5,31.9c0.1,0.5,0.5,0.9,0.9,0.9c0.4,0,0.8-0.4,0.9-0.9
		c0,0,2.7-19.8,4.5-31.9c1.8-12.1,9.4-20.8,9.4-20.8s-7.6-8.7-9.4-20.8C96.3,367.1,93.6,347.3,93.6,347.3z" style="fill: rgb(95, 76, 69);"></path>
	
		<rect x="85.8" y="294.1" transform="matrix(0.707 -0.7072 0.7072 0.707 -185.7795 153.8001)" class="st0" width="13.9" height="13.9" style="fill: rgb(95, 76, 69);"></rect>
	
		<rect x="85.8" y="491.9" transform="matrix(0.7071 -0.7071 0.7071 0.7071 -325.6008 211.6788)" class="st0" width="13.9" height="13.9" style="fill: rgb(95, 76, 69);"></rect>
	<path class="st0" d="M92.1,240.7c0.1,0.4,0.3,0.7,0.6,0.7s0.6-0.3,0.7-0.7c0,0,2-14.4,3.3-23.3c1.3-8.9,6.9-15.2,6.9-15.2
		s-5.5-6.3-6.9-15.2c-1.3-8.9-3.3-23.3-3.3-23.3c-0.1-0.4-0.3-0.7-0.7-0.7s-0.6,0.3-0.6,0.7c0,0-2,14.4-3.3,23.3
		c-1.3,8.9-6.9,15.2-6.9,15.2s5.5,6.3,6.9,15.2C90.1,226.3,92.1,240.7,92.1,240.7z" style="fill: rgb(95, 76, 69);"></path>
	<path class="st0" d="M93.4,559.3c-0.1-0.4-0.3-0.7-0.7-0.7s-0.6,0.3-0.6,0.7c0,0-2,14.5-3.3,23.3c-1.3,8.9-6.9,15.2-6.9,15.2
		s5.5,6.3,6.9,15.2c1.3,8.9,3.3,23.3,3.3,23.3c0.1,0.4,0.3,0.7,0.6,0.7s0.6-0.3,0.7-0.7c0,0,2-14.4,3.3-23.3
		c1.3-8.9,6.9-15.2,6.9-15.2s-5.5-6.3-6.9-15.2C95.4,573.7,93.4,559.3,93.4,559.3z" style="fill: rgb(95, 76, 69);"></path>
	<path class="st0" d="M708.2,347.3c-0.1-0.5-0.5-0.9-0.9-0.9c-0.4,0-0.8,0.4-0.9,0.9c0,0-2.7,19.8-4.5,31.9
		c-1.8,12.1-9.4,20.8-9.4,20.8s7.6,8.7,9.4,20.8c1.8,12.1,4.5,31.9,4.5,31.9c0.1,0.5,0.4,0.9,0.9,0.9c0.4,0,0.8-0.4,0.9-0.9
		c0,0,2.7-19.8,4.5-31.9c1.8-12.1,9.4-20.8,9.4-20.8s-7.6-8.7-9.4-20.8C710.9,367.1,708.2,347.3,708.2,347.3z" style="fill: rgb(95, 76, 69);"></path>
	
		<rect x="700.4" y="294.1" transform="matrix(0.7072 -0.7071 0.7071 0.7072 -5.7678 588.2944)" class="st0" width="13.9" height="13.9" style="fill: rgb(95, 76, 69);"></rect>
	
		<rect x="700.3" y="491.9" transform="matrix(0.707 -0.7072 0.7072 0.707 -145.5996 646.3614)" class="st0" width="13.9" height="13.9" style="fill: rgb(95, 76, 69);"></rect>
	<path class="st0" d="M706.6,240.7c0.1,0.4,0.3,0.7,0.7,0.7c0.3,0,0.6-0.3,0.6-0.7c0,0,2-14.4,3.3-23.3c1.3-8.9,6.9-15.2,6.9-15.2
		s-5.5-6.3-6.9-15.2c-1.3-8.9-3.3-23.3-3.3-23.3c-0.1-0.4-0.3-0.7-0.6-0.7c-0.3,0-0.6,0.3-0.7,0.7c0,0-2,14.4-3.3,23.3
		c-1.3,8.9-6.9,15.2-6.9,15.2s5.5,6.3,6.9,15.2C704.6,226.3,706.6,240.7,706.6,240.7z" style="fill: rgb(95, 76, 69);"></path>
	<path class="st0" d="M707.9,559.3c-0.1-0.4-0.3-0.7-0.6-0.7c-0.3,0-0.6,0.3-0.7,0.7c0,0-2,14.5-3.3,23.3
		c-1.3,8.9-6.9,15.2-6.9,15.2s5.5,6.3,6.9,15.2c1.3,8.9,3.3,23.3,3.3,23.3c0.1,0.4,0.3,0.7,0.7,0.7c0.3,0,0.6-0.3,0.6-0.7
		c0,0,2-14.4,3.3-23.3c1.3-8.9,6.9-15.2,6.9-15.2s-5.5-6.3-6.9-15.2C709.9,573.7,707.9,559.3,707.9,559.3z" style="fill: rgb(95, 76, 69);"></path>
	<path class="st0" d="M347.3,93.6c0,0,19.8,2.7,31.9,4.5c12.1,1.8,20.8,9.4,20.8,9.4s8.7-7.6,20.8-9.4c12.1-1.8,31.9-4.5,31.9-4.5
		c0.5-0.1,0.9-0.5,0.9-0.9c0-0.4-0.4-0.8-0.9-0.9c0,0-19.8-2.7-31.9-4.5c-12.1-1.8-20.8-9.4-20.8-9.4s-8.7,7.6-20.8,9.4
		c-12.1,1.8-31.9,4.5-31.9,4.5c-0.5,0.1-0.9,0.4-0.9,0.9C346.4,93.2,346.7,93.5,347.3,93.6z" style="fill: rgb(95, 76, 69);"></path>
	
		<rect x="491.9" y="85.8" transform="matrix(0.7071 -0.7071 0.7071 0.7071 80.5493 379.9158)" class="st0" width="13.9" height="13.9" style="fill: rgb(95, 76, 69);"></rect>
	
		<rect x="294.2" y="85.7" transform="matrix(0.7071 -0.7071 0.7071 0.7071 22.6354 240.0768)" class="st0" width="13.9" height="13.9" style="fill: rgb(95, 76, 69);"></rect>
	<path class="st0" d="M559.3,93.4c0,0,14.4,2,23.3,3.3c8.9,1.3,15.2,6.9,15.2,6.9s6.3-5.5,15.2-6.9c8.9-1.3,23.3-3.3,23.3-3.3
		c0.4-0.1,0.7-0.3,0.7-0.7s-0.3-0.6-0.7-0.6c0,0-14.4-2-23.3-3.3c-8.9-1.3-15.2-6.9-15.2-6.9s-6.3,5.5-15.2,6.9
		c-8.9,1.3-23.3,3.3-23.3,3.3c-0.4,0.1-0.7,0.3-0.7,0.6S558.9,93.3,559.3,93.4z" style="fill: rgb(95, 76, 69);"></path>
	<path class="st0" d="M163.8,93.4c0,0,14.5,2,23.3,3.3c8.9,1.3,15.2,6.9,15.2,6.9s6.3-5.5,15.2-6.9c8.9-1.3,23.3-3.3,23.3-3.3
		c0.4-0.1,0.7-0.3,0.7-0.7s-0.3-0.6-0.7-0.6c0,0-14.4-2-23.3-3.3c-8.9-1.3-15.2-6.9-15.2-6.9s-6.3,5.5-15.2,6.9
		c-8.9,1.3-23.3,3.3-23.3,3.3c-0.4,0.1-0.7,0.3-0.7,0.6C163.1,93,163.4,93.3,163.8,93.4z" style="fill: rgb(95, 76, 69);"></path>
	<path class="st0" d="M452.7,706.4c0,0-19.8-2.7-31.9-4.5c-12.1-1.8-20.8-9.4-20.8-9.4s-8.7,7.6-20.8,9.4
		c-12.1,1.8-31.9,4.5-31.9,4.5c-0.5,0.1-0.9,0.4-0.9,0.9c0,0.4,0.4,0.8,0.9,0.9c0,0,19.8,2.7,31.9,4.5c12.1,1.8,20.8,9.4,20.8,9.4
		s8.7-7.6,20.8-9.4c12.1-1.8,31.9-4.5,31.9-4.5c0.5-0.1,0.9-0.5,0.9-0.9C453.6,706.8,453.3,706.5,452.7,706.4z" style="fill: rgb(95, 76, 69);"></path>
	
		<rect x="491.9" y="700.3" transform="matrix(0.7072 -0.707 0.707 0.7072 -354.0101 559.7948)" class="st0" width="13.9" height="13.9" style="fill: rgb(95, 76, 69);"></rect>
	
		<rect x="294.2" y="700.3" transform="matrix(0.7072 -0.7071 0.7071 0.7072 -411.9033 420.0682)" class="st0" width="13.9" height="13.9" style="fill: rgb(95, 76, 69);"></rect>
	<path class="st0" d="M636.2,706.6c0,0-14.4-2-23.3-3.3c-8.9-1.3-15.2-6.9-15.2-6.9s-6.3,5.5-15.2,6.9c-8.9,1.3-23.3,3.3-23.3,3.3
		c-0.4,0.1-0.7,0.3-0.7,0.6s0.3,0.6,0.7,0.7c0,0,14.4,2,23.3,3.3c8.9,1.3,15.2,6.9,15.2,6.9s6.3-5.5,15.2-6.9
		c8.9-1.3,23.3-3.3,23.3-3.3c0.4-0.1,0.7-0.3,0.7-0.7C636.9,707,636.6,706.7,636.2,706.6z" style="fill: rgb(95, 76, 69);"></path>
	<path class="st0" d="M240.7,706.6c0,0-14.4-2-23.3-3.3c-8.9-1.3-15.2-6.9-15.2-6.9s-6.3,5.5-15.2,6.9c-8.9,1.3-23.3,3.3-23.3,3.3
		c-0.4,0.1-0.7,0.3-0.7,0.6s0.3,0.6,0.7,0.7c0,0,14.5,2,23.3,3.3c8.9,1.3,15.2,6.9,15.2,6.9s6.3-5.5,15.2-6.9
		c8.9-1.3,23.3-3.3,23.3-3.3c0.4-0.1,0.7-0.3,0.7-0.7C241.4,707,241.1,706.7,240.7,706.6z" style="fill: rgb(95, 76, 69);"></path>
</g>
</svg>
