<!--?xml version="1.0" encoding="utf-8"?-->
<!-- Generator: Adobe Illustrator 22.1.0, SVG Export Plug-In . SVG Version: 6.00 Build 0)  -->
<svg version="1.1" id="_x32_" xmlns="http://www.w3.org/2000/svg" xmlns:xlink="http://www.w3.org/1999/xlink" x="0px" y="0px" viewBox="0 0 800 800" style="width: 300px;" xml:space="preserve">
<style type="text/css">
	.st0{fill:#00585D;}
	.st1{fill:#FFFFFF;}
</style>
<g>
	<polygon class="st0" points="684,4 116,4 4,116 4,684 116,796 119.5,796 684,796 796,684 796,116 	" style="fill: rgb(105, 130, 105);"></polygon>
	<polygon class="st1" points="779.2,677 677,779.2 123,779.2 20.8,677 20.8,123 123,20.8 677,20.8 779.2,123 	" style="fill: rgb(255, 248, 238);"></polygon>
	<polygon class="st0" points="662.1,51.8 135.8,51.8 51.8,135.8 51.8,664.2 135.8,748.2 664.2,748.2 748.2,664.2 748.2,135.8 
		664.2,51.8 	" style="fill: rgb(105, 130, 105);"></polygon>
	<polygon class="st1" points="738.3,660.1 660.1,738.3 139.9,738.3 61.7,660.1 61.7,139.9 139.9,61.7 660.1,61.7 738.3,139.9 	" style="fill: rgb(255, 248, 238);"></polygon>
	<path class="st0" d="M91.3,642.9c-1.3,0-2.6,0.5-3.5,1.4c-0.9,0.9-1.4,2.2-1.4,3.5c0,1.3,0.5,2.6,1.4,3.5c0.9,0.9,2.2,1.4,3.5,1.4
		c1.3,0,2.6-0.5,3.5-1.4c0.9-0.9,1.4-2.2,1.4-3.5c0-1.3-0.5-2.6-1.4-3.5C93.9,643.4,92.6,642.9,91.3,642.9z" style="fill: rgb(105, 130, 105);"></path>
	<path class="st0" d="M91.3,312.5c-2.7,0-4.9,2.2-4.9,4.9c0,2.7,2.2,4.9,4.9,4.9c2.7,0,4.9-2.2,4.9-4.9
		C96.2,314.7,94,312.5,91.3,312.5z" style="fill: rgb(105, 130, 105);"></path>
	<path class="st0" d="M91.3,383.3c-2.7,0-4.9,2.2-4.9,4.9c0,2.7,2.2,4.9,4.9,4.9c2.7,0,4.9-2.2,4.9-4.9
		C96.2,385.5,94,383.3,91.3,383.3z" style="fill: rgb(105, 130, 105);"></path>
	<path class="st0" d="M91.3,359.7c-2.7,0-4.9,2.2-4.9,4.9c0,2.7,2.2,4.9,4.9,4.9c2.7,0,4.9-2.2,4.9-4.9
		C96.2,361.9,94,359.7,91.3,359.7z" style="fill: rgb(105, 130, 105);"></path>
	<path class="st0" d="M91.3,336.1c-2.7,0-4.9,2.2-4.9,4.9c0,2.7,2.2,4.9,4.9,4.9c2.7,0,4.9-2.2,4.9-4.9
		C96.2,338.3,94,336.1,91.3,336.1z" style="fill: rgb(105, 130, 105);"></path>
	<circle class="st0" cx="91.3" cy="293.8" r="4.9" style="fill: rgb(105, 130, 105);"></circle>
	<path class="st0" d="M91.3,265.3c-2.7,0-4.9,2.2-4.9,4.9c0,2.7,2.2,4.9,4.9,4.9c2.7,0,4.9-2.2,4.9-4.9
		C96.2,267.5,94,265.3,91.3,265.3z" style="fill: rgb(105, 130, 105);"></path>
	<path class="st0" d="M91.3,241.6c-2.7,0-4.9,2.2-4.9,4.9c0,2.7,2.2,4.9,4.9,4.9c2.7,0,4.9-2.2,4.9-4.9
		C96.2,243.9,94,241.6,91.3,241.6z" style="fill: rgb(105, 130, 105);"></path>
	<path class="st0" d="M91.3,194.4c-2.7,0-4.9,2.2-4.9,4.9c0,2.7,2.2,4.9,4.9,4.9c2.7,0,4.9-2.2,4.9-4.9S94,194.4,91.3,194.4z" style="fill: rgb(105, 130, 105);"></path>
	<path class="st0" d="M91.3,170.8c-2.7,0-4.9,2.2-4.9,4.9c0,2.7,2.2,4.9,4.9,4.9c2.7,0,4.9-2.2,4.9-4.9
		C96.2,173,94,170.8,91.3,170.8z" style="fill: rgb(105, 130, 105);"></path>
	<path class="st0" d="M91.3,218c-2.7,0-4.9,2.2-4.9,4.9c0,2.7,2.2,4.9,4.9,4.9c2.7,0,4.9-2.2,4.9-4.9C96.2,220.3,94,218,91.3,218z" style="fill: rgb(105, 130, 105);"></path>
	<path class="st0" d="M91.3,477.7c-2.7,0-4.9,2.2-4.9,4.9c0,2.7,2.2,4.9,4.9,4.9c2.7,0,4.9-2.2,4.9-4.9
		C96.2,479.9,94,477.7,91.3,477.7z" style="fill: rgb(105, 130, 105);"></path>
	<path class="st0" d="M91.3,572.1c-2.7,0-4.9,2.2-4.9,4.9c0,2.7,2.2,4.9,4.9,4.9c2.7,0,4.9-2.2,4.9-4.9
		C96.2,574.3,94,572.1,91.3,572.1z" style="fill: rgb(105, 130, 105);"></path>
	<ellipse class="st0" cx="91.3" cy="600.6" rx="4.9" ry="4.9" style="fill: rgb(105, 130, 105);"></ellipse>
	<path class="st0" d="M91.3,548.5c-2.7,0-4.9,2.2-4.9,4.9c0,2.7,2.2,4.9,4.9,4.9c2.7,0,4.9-2.2,4.9-4.9
		C96.2,550.7,94,548.5,91.3,548.5z" style="fill: rgb(105, 130, 105);"></path>
	<path class="st0" d="M91.3,619.3c-2.7,0-4.9,2.2-4.9,4.9c0,2.7,2.2,4.9,4.9,4.9c2.7,0,4.9-2.2,4.9-4.9
		C96.2,621.5,94,619.3,91.3,619.3z" style="fill: rgb(105, 130, 105);"></path>
	<path class="st0" d="M91.3,501.3c-2.7,0-4.9,2.2-4.9,4.9c0,2.7,2.2,4.9,4.9,4.9c2.7,0,4.9-2.2,4.9-4.9
		C96.2,503.5,94,501.3,91.3,501.3z" style="fill: rgb(105, 130, 105);"></path>
	<path class="st0" d="M91.3,430.5c-2.7,0-4.9,2.2-4.9,4.9c0,2.7,2.2,4.9,4.9,4.9c2.7,0,4.9-2.2,4.9-4.9
		C96.2,432.7,94,430.5,91.3,430.5z" style="fill: rgb(105, 130, 105);"></path>
	<path class="st0" d="M91.3,454.1c-2.7,0-4.9,2.2-4.9,4.9c0,2.7,2.2,4.9,4.9,4.9c2.7,0,4.9-2.2,4.9-4.9
		C96.2,456.3,94,454.1,91.3,454.1z" style="fill: rgb(105, 130, 105);"></path>
	<path class="st0" d="M91.3,524.9c-2.7,0-4.9,2.2-4.9,4.9c0,2.7,2.2,4.9,4.9,4.9c2.7,0,4.9-2.2,4.9-4.9
		C96.2,527.1,94,524.9,91.3,524.9z" style="fill: rgb(105, 130, 105);"></path>
	<path class="st0" d="M91.3,406.9c-2.7,0-4.9,2.2-4.9,4.9c0,2.7,2.2,4.9,4.9,4.9c2.7,0,4.9-2.2,4.9-4.9
		C96.2,409.1,94,406.9,91.3,406.9z" style="fill: rgb(105, 130, 105);"></path>
	<path class="st0" d="M91.3,147.2c-1.3,0-2.6,0.5-3.5,1.4c-0.9,0.9-1.4,2.2-1.4,3.5c0,1.3,0.5,2.6,1.4,3.5c0.9,0.9,2.2,1.4,3.5,1.4
		c1.3,0,2.6-0.5,3.5-1.4c0.9-0.9,1.4-2.2,1.4-3.5c0-1.3-0.5-2.6-1.4-3.5C93.9,147.8,92.6,147.2,91.3,147.2z" style="fill: rgb(105, 130, 105);"></path>
	<path class="st0" d="M121.4,115c-1.9,1.9-1.9,5,0,7c1.9,1.9,5,1.9,7,0c1.9-1.9,1.9-5,0-7C126.5,113.1,123.4,113.1,121.4,115z" style="fill: rgb(105, 130, 105);"></path>
	<path class="st0" d="M104.6,131.9c-1.9,1.9-1.9,5,0,7c1.9,1.9,5.1,1.9,7,0c1.9-1.9,1.9-5,0-7C109.7,129.9,106.5,129.9,104.6,131.9z
		" style="fill: rgb(105, 130, 105);"></path>
	<path class="st0" d="M121.4,678c-1.9,1.9-1.9,5,0,7c1.9,1.9,5,1.9,7,0c1.9-1.9,1.9-5,0-7C126.5,676,123.4,676,121.4,678z" style="fill: rgb(105, 130, 105);"></path>
	<path class="st0" d="M708.7,430.7c-2.7,0-4.9,2.2-4.9,4.9c0,2.7,2.2,4.9,4.9,4.9c2.7,0,4.9-2.2,4.9-4.9
		C713.6,433,711.4,430.7,708.7,430.7z" style="fill: rgb(105, 130, 105);"></path>
	<path class="st0" d="M708.7,454.5c-2.7,0-4.9,2.2-4.9,4.9c0,2.7,2.2,4.9,4.9,4.9c2.7,0,4.9-2.2,4.9-4.9S711.4,454.5,708.7,454.5z" style="fill: rgb(105, 130, 105);"></path>
	<path class="st0" d="M138.3,98.2c-1.9,1.9-1.9,5,0,7c1.9,1.9,5,1.9,7,0c1.9-1.9,1.9-5,0-7C143.3,96.3,140.2,96.3,138.3,98.2z" style="fill: rgb(105, 130, 105);"></path>
	<path class="st0" d="M708.7,478.3c-2.7,0-4.9,2.2-4.9,4.9c0,2.7,2.2,4.9,4.9,4.9c2.7,0,4.9-2.2,4.9-4.9
		C713.6,480.5,711.4,478.3,708.7,478.3z" style="fill: rgb(105, 130, 105);"></path>
	<path class="st0" d="M104.6,661.2c-1.9,1.9-1.9,5,0,7c1.9,1.9,5.1,1.9,7,0c1.9-1.9,1.9-5,0-7C109.7,659.2,106.5,659.2,104.6,661.2z
		" style="fill: rgb(105, 130, 105);"></path>
	<path class="st0" d="M708.7,502.1c-2.7,0-4.9,2.2-4.9,4.9c0,2.7,2.2,4.9,4.9,4.9c2.7,0,4.9-2.2,4.9-4.9
		C713.6,504.3,711.4,502.1,708.7,502.1z" style="fill: rgb(105, 130, 105);"></path>
	<path class="st0" d="M138.3,694.8c-1.9,1.9-1.9,5,0,7c1.9,1.9,5,1.9,7,0c1.9-1.9,1.9-5,0-7C143.3,692.9,140.2,692.9,138.3,694.8z" style="fill: rgb(105, 130, 105);"></path>
	<path class="st0" d="M208.8,86.4c-2.7,0-4.9,2.2-4.9,4.9c0,2.7,2.2,4.9,4.9,4.9c2.7,0,4.9-2.2,4.9-4.9
		C213.7,88.6,211.5,86.4,208.8,86.4z" style="fill: rgb(105, 130, 105);"></path>
	<path class="st0" d="M232.6,86.4c-2.7,0-4.9,2.2-4.9,4.9c0,2.7,2.2,4.9,4.9,4.9c2.7,0,4.9-2.2,4.9-4.9
		C237.5,88.6,235.3,86.4,232.6,86.4z" style="fill: rgb(105, 130, 105);"></path>
	<path class="st0" d="M232.6,703.8c-2.7,0-4.9,2.2-4.9,4.9c0,2.7,2.2,4.9,4.9,4.9c2.7,0,4.9-2.2,4.9-4.9
		C237.5,706,235.3,703.8,232.6,703.8z" style="fill: rgb(105, 130, 105);"></path>
	<path class="st0" d="M256.3,703.8c-2.7,0-4.9,2.2-4.9,4.9c0,2.7,2.2,4.9,4.9,4.9c2.7,0,4.9-2.2,4.9-4.9
		C261.3,706,259.1,703.8,256.3,703.8z" style="fill: rgb(105, 130, 105);"></path>
	<path class="st0" d="M161.2,86.4c-2.7,0-4.9,2.2-4.9,4.9c0,2.7,2.2,4.9,4.9,4.9c2.7,0,4.9-2.2,4.9-4.9
		C166.1,88.6,163.9,86.4,161.2,86.4z" style="fill: rgb(105, 130, 105);"></path>
	<path class="st0" d="M208.8,703.8c-2.7,0-4.9,2.2-4.9,4.9c0,2.7,2.2,4.9,4.9,4.9c2.7,0,4.9-2.2,4.9-4.9
		C213.7,706,211.5,703.8,208.8,703.8z" style="fill: rgb(105, 130, 105);"></path>
	<path class="st0" d="M185,703.8c-2.7,0-4.9,2.2-4.9,4.9c0,2.7,2.2,4.9,4.9,4.9c2.7,0,4.9-2.2,4.9-4.9
		C189.9,706,187.7,703.8,185,703.8z" style="fill: rgb(105, 130, 105);"></path>
	<path class="st0" d="M161.2,703.8c-2.7,0-4.9,2.2-4.9,4.9c0,2.7,2.2,4.9,4.9,4.9c2.7,0,4.9-2.2,4.9-4.9
		C166.1,706,163.9,703.8,161.2,703.8z" style="fill: rgb(105, 130, 105);"></path>
	<path class="st0" d="M185,86.4c-2.7,0-4.9,2.2-4.9,4.9c0,2.7,2.2,4.9,4.9,4.9c2.7,0,4.9-2.2,4.9-4.9
		C189.9,88.6,187.7,86.4,185,86.4z" style="fill: rgb(105, 130, 105);"></path>
	<path class="st0" d="M708.7,192.9c-2.7,0-4.9,2.2-4.9,4.9c0,2.7,2.2,4.9,4.9,4.9c2.7,0,4.9-2.2,4.9-4.9
		C713.6,195.1,711.4,192.9,708.7,192.9z" style="fill: rgb(105, 130, 105);"></path>
	<path class="st0" d="M710.9,154.3c1.9-1.9,1.9-5,0-7c-1.9-1.9-5-1.9-7,0c-1.9,1.9-1.9,5.1,0,7C705.8,156.2,708.9,156.2,710.9,154.3
		z" style="fill: rgb(105, 130, 105);"></path>
	<path class="st0" d="M710.9,652.7c1.9-1.9,1.9-5,0-7c-1.9-1.9-5-1.9-7,0c-1.9,1.9-1.9,5,0,7C705.8,654.6,708.9,654.6,710.9,652.7z" style="fill: rgb(105, 130, 105);"></path>
	<path class="st0" d="M708.7,407c-2.7,0-4.9,2.2-4.9,4.9c0,2.7,2.2,4.9,4.9,4.9c2.7,0,4.9-2.2,4.9-4.9
		C713.6,409.2,711.4,407,708.7,407z" style="fill: rgb(105, 130, 105);"></path>
	<ellipse class="st0" cx="690.5" cy="134" rx="4.9" ry="4.9" style="fill: rgb(105, 130, 105);"></ellipse>
	<path class="st0" d="M708.7,169.1c-2.7,0-4.9,2.2-4.9,4.9s2.2,4.9,4.9,4.9c2.7,0,4.9-2.2,4.9-4.9
		C713.6,171.3,711.4,169.1,708.7,169.1z" style="fill: rgb(105, 130, 105);"></path>
	<path class="st0" d="M677.2,686.3c1.9-1.9,1.9-5,0-7c-1.9-1.9-5-1.9-7,0c-1.9,1.9-1.9,5,0,7C672.2,688.2,675.3,688.2,677.2,686.3z" style="fill: rgb(105, 130, 105);"></path>
	<path class="st0" d="M653.4,96.9c-1.9,1.9-1.9,5,0,7c1.9,1.9,5,1.9,7,0c1.9-1.9,1.9-5,0-7C658.5,95,655.3,95,653.4,96.9z" style="fill: rgb(105, 130, 105);"></path>
	<path class="st0" d="M677.2,120.7c1.9-1.9,1.9-5,0-7c-1.9-1.9-5-1.9-7,0c-1.9,1.9-1.9,5,0,7C672.2,122.6,675.3,122.6,677.2,120.7z" style="fill: rgb(105, 130, 105);"></path>
	<path class="st0" d="M694,669.5c1.9-1.9,1.9-5.1,0-7c-1.9-1.9-5-1.9-7,0c-1.9,1.9-1.9,5,0,7C689,671.4,692.1,671.4,694,669.5z" style="fill: rgb(105, 130, 105);"></path>
	<path class="st0" d="M256.3,86.4c-2.7,0-4.9,2.2-4.9,4.9c0,2.7,2.2,4.9,4.9,4.9c2.7,0,4.9-2.2,4.9-4.9
		C261.3,88.6,259.1,86.4,256.3,86.4z" style="fill: rgb(105, 130, 105);"></path>
	<path class="st0" d="M708.7,335.6c-2.7,0-4.9,2.2-4.9,4.9c0,2.7,2.2,4.9,4.9,4.9c2.7,0,4.9-2.2,4.9-4.9
		C713.6,337.8,711.4,335.6,708.7,335.6z" style="fill: rgb(105, 130, 105);"></path>
	<path class="st0" d="M708.7,216.7c-2.7,0-4.9,2.2-4.9,4.9c0,2.7,2.2,4.9,4.9,4.9c2.7,0,4.9-2.2,4.9-4.9
		C713.6,218.9,711.4,216.7,708.7,216.7z" style="fill: rgb(105, 130, 105);"></path>
	<path class="st0" d="M708.7,359.4c-2.7,0-4.9,2.2-4.9,4.9c0,2.7,2.2,4.9,4.9,4.9c2.7,0,4.9-2.2,4.9-4.9
		C713.6,361.6,711.4,359.4,708.7,359.4z" style="fill: rgb(105, 130, 105);"></path>
	<path class="st0" d="M708.7,383.2c-2.7,0-4.9,2.2-4.9,4.9c0,2.7,2.2,4.9,4.9,4.9c2.7,0,4.9-2.2,4.9-4.9
		C713.6,385.4,711.4,383.2,708.7,383.2z" style="fill: rgb(105, 130, 105);"></path>
	<path class="st0" d="M708.7,311.8c-2.7,0-4.9,2.2-4.9,4.9c0,2.7,2.2,4.9,4.9,4.9c2.7,0,4.9-2.2,4.9-4.9
		C713.6,314,711.4,311.8,708.7,311.8z" style="fill: rgb(105, 130, 105);"></path>
	<path class="st0" d="M708.7,288c-2.7,0-4.9,2.2-4.9,4.9c0,2.7,2.2,4.9,4.9,4.9c2.7,0,4.9-2.2,4.9-4.9
		C713.6,290.2,711.4,288,708.7,288z" style="fill: rgb(105, 130, 105);"></path>
	<path class="st0" d="M708.7,240.5c-2.7,0-4.9,2.2-4.9,4.9c0,2.7,2.2,4.9,4.9,4.9c2.7,0,4.9-2.2,4.9-4.9
		C713.6,242.7,711.4,240.5,708.7,240.5z" style="fill: rgb(105, 130, 105);"></path>
	<path class="st0" d="M708.7,264.3c-2.7,0-4.9,2.2-4.9,4.9c0,2.7,2.2,4.9,4.9,4.9c2.7,0,4.9-2.2,4.9-4.9
		C713.6,266.5,711.4,264.3,708.7,264.3z" style="fill: rgb(105, 130, 105);"></path>
	<path class="st0" d="M422.8,86.4c-2.7,0-4.9,2.2-4.9,4.9c0,2.7,2.2,4.9,4.9,4.9c2.7,0,4.9-2.2,4.9-4.9
		C427.8,88.6,425.6,86.4,422.8,86.4z" style="fill: rgb(105, 130, 105);"></path>
	<path class="st0" d="M565.5,86.4c-2.7,0-4.9,2.2-4.9,4.9c0,2.7,2.2,4.9,4.9,4.9c2.7,0,4.9-2.2,4.9-4.9
		C570.5,88.6,568.3,86.4,565.5,86.4z" style="fill: rgb(105, 130, 105);"></path>
	<path class="st0" d="M589.3,703.8c-2.7,0-4.9,2.2-4.9,4.9c0,2.7,2.2,4.9,4.9,4.9c2.7,0,4.9-2.2,4.9-4.9
		C594.3,706,592,703.8,589.3,703.8z" style="fill: rgb(105, 130, 105);"></path>
	<path class="st0" d="M565.5,703.8c-2.7,0-4.9,2.2-4.9,4.9c0,2.7,2.2,4.9,4.9,4.9c2.7,0,4.9-2.2,4.9-4.9
		C570.5,706,568.3,703.8,565.5,703.8z" style="fill: rgb(105, 130, 105);"></path>
	<path class="st0" d="M589.3,86.4c-2.7,0-4.9,2.2-4.9,4.9c0,2.7,2.2,4.9,4.9,4.9c2.7,0,4.9-2.2,4.9-4.9
		C594.3,88.6,592,86.4,589.3,86.4z" style="fill: rgb(105, 130, 105);"></path>
	<path class="st0" d="M541.8,86.4c-2.7,0-4.9,2.2-4.9,4.9c0,2.7,2.2,4.9,4.9,4.9c2.7,0,4.9-2.2,4.9-4.9
		C546.7,88.6,544.5,86.4,541.8,86.4z" style="fill: rgb(105, 130, 105);"></path>
	<ellipse class="st0" cx="518" cy="708.7" rx="4.9" ry="4.9" style="fill: rgb(105, 130, 105);"></ellipse>
	<path class="st0" d="M518,86.4c-2.7,0-4.9,2.2-4.9,4.9c0,2.7,2.2,4.9,4.9,4.9c2.7,0,4.9-2.2,4.9-4.9
		C522.9,88.6,520.7,86.4,518,86.4z" style="fill: rgb(105, 130, 105);"></path>
	<path class="st0" d="M541.8,703.8c-2.7,0-4.9,2.2-4.9,4.9c0,2.7,2.2,4.9,4.9,4.9s4.9-2.2,4.9-4.9
		C546.7,706,544.5,703.8,541.8,703.8z" style="fill: rgb(105, 130, 105);"></path>
	<path class="st0" d="M613.1,703.8c-2.7,0-4.9,2.2-4.9,4.9c0,2.7,2.2,4.9,4.9,4.9c2.7,0,4.9-2.2,4.9-4.9
		C618,706,615.8,703.8,613.1,703.8z" style="fill: rgb(105, 130, 105);"></path>
	<path class="st0" d="M653.4,696.1c-1.9,1.9-1.9,5,0,7c1.9,1.9,5,1.9,7,0c1.9-1.9,1.9-5,0-7C658.5,694.2,655.3,694.2,653.4,696.1z" style="fill: rgb(105, 130, 105);"></path>
	<path class="st0" d="M613.1,86.4c-2.7,0-4.9,2.2-4.9,4.9c0,2.7,2.2,4.9,4.9,4.9c2.7,0,4.9-2.2,4.9-4.9
		C618,88.6,615.8,86.4,613.1,86.4z" style="fill: rgb(105, 130, 105);"></path>
	<path class="st0" d="M708.7,621c-2.7,0-4.9,2.2-4.9,4.9c0,2.7,2.2,4.9,4.9,4.9c2.7,0,4.9-2.2,4.9-4.9
		C713.6,623.2,711.4,621,708.7,621z" style="fill: rgb(105, 130, 105);"></path>
	<path class="st0" d="M708.7,597.2c-2.7,0-4.9,2.2-4.9,4.9c0,2.7,2.2,4.9,4.9,4.9c2.7,0,4.9-2.2,4.9-4.9
		C713.6,599.4,711.4,597.2,708.7,597.2z" style="fill: rgb(105, 130, 105);"></path>
	<path class="st0" d="M708.7,549.7c-2.7,0-4.9,2.2-4.9,4.9c0,2.7,2.2,4.9,4.9,4.9c2.7,0,4.9-2.2,4.9-4.9
		C713.6,551.9,711.4,549.7,708.7,549.7z" style="fill: rgb(105, 130, 105);"></path>
	<path class="st0" d="M708.7,573.4c-2.7,0-4.9,2.2-4.9,4.9c0,2.7,2.2,4.9,4.9,4.9c2.7,0,4.9-2.2,4.9-4.9
		C713.6,575.7,711.4,573.4,708.7,573.4z" style="fill: rgb(105, 130, 105);"></path>
	<path class="st0" d="M636.9,703.8c-2.7,0-4.9,2.2-4.9,4.9c0,2.7,2.2,4.9,4.9,4.9c2.7,0,4.9-2.2,4.9-4.9
		C641.8,706,639.6,703.8,636.9,703.8z" style="fill: rgb(105, 130, 105);"></path>
	<path class="st0" d="M494.2,86.4c-2.7,0-4.9,2.2-4.9,4.9c0,2.7,2.2,4.9,4.9,4.9c2.7,0,4.9-2.2,4.9-4.9
		C499.1,88.6,496.9,86.4,494.2,86.4z" style="fill: rgb(105, 130, 105);"></path>
	<path class="st0" d="M636.9,86.4c-2.7,0-4.9,2.2-4.9,4.9c0,2.7,2.2,4.9,4.9,4.9c2.7,0,4.9-2.2,4.9-4.9
		C641.8,88.6,639.6,86.4,636.9,86.4z" style="fill: rgb(105, 130, 105);"></path>
	<path class="st0" d="M446.6,703.8c-2.7,0-4.9,2.2-4.9,4.9c0,2.7,2.2,4.9,4.9,4.9c2.7,0,4.9-2.2,4.9-4.9
		C451.5,706,449.3,703.8,446.6,703.8z" style="fill: rgb(105, 130, 105);"></path>
	<path class="st0" d="M351.5,703.8c-2.7,0-4.9,2.2-4.9,4.9c0,2.7,2.2,4.9,4.9,4.9c2.7,0,4.9-2.2,4.9-4.9
		C356.4,706,354.2,703.8,351.5,703.8z" style="fill: rgb(105, 130, 105);"></path>
	<path class="st0" d="M351.5,86.4c-2.7,0-4.9,2.2-4.9,4.9c0,2.7,2.2,4.9,4.9,4.9c2.7,0,4.9-2.2,4.9-4.9
		C356.4,88.6,354.2,86.4,351.5,86.4z" style="fill: rgb(105, 130, 105);"></path>
	<path class="st0" d="M375.3,703.8c-2.7,0-4.9,2.2-4.9,4.9c0,2.7,2.2,4.9,4.9,4.9c2.7,0,4.9-2.2,4.9-4.9
		C380.2,706,378,703.8,375.3,703.8z" style="fill: rgb(105, 130, 105);"></path>
	<path class="st0" d="M327.7,86.4c-2.7,0-4.9,2.2-4.9,4.9c0,2.7,2.2,4.9,4.9,4.9c2.7,0,4.9-2.2,4.9-4.9
		C332.6,88.6,330.4,86.4,327.7,86.4z" style="fill: rgb(105, 130, 105);"></path>
	<path class="st0" d="M303.9,703.8c-2.7,0-4.9,2.2-4.9,4.9c0,2.7,2.2,4.9,4.9,4.9c2.7,0,4.9-2.2,4.9-4.9
		C308.8,706,306.6,703.8,303.9,703.8z" style="fill: rgb(105, 130, 105);"></path>
	<path class="st0" d="M375.3,86.4c-2.7,0-4.9,2.2-4.9,4.9c0,2.7,2.2,4.9,4.9,4.9c2.7,0,4.9-2.2,4.9-4.9
		C380.2,88.6,378,86.4,375.3,86.4z" style="fill: rgb(105, 130, 105);"></path>
	<path class="st0" d="M494.2,703.8c-2.7,0-4.9,2.2-4.9,4.9c0,2.7,2.2,4.9,4.9,4.9c2.7,0,4.9-2.2,4.9-4.9
		C499.1,706,496.9,703.8,494.2,703.8z" style="fill: rgb(105, 130, 105);"></path>
	<path class="st0" d="M280.1,86.4c-2.7,0-4.9,2.2-4.9,4.9c0,2.7,2.2,4.9,4.9,4.9c2.7,0,4.9-2.2,4.9-4.9
		C285.1,88.6,282.9,86.4,280.1,86.4z" style="fill: rgb(105, 130, 105);"></path>
	<path class="st0" d="M303.9,86.4c-2.7,0-4.9,2.2-4.9,4.9c0,2.7,2.2,4.9,4.9,4.9c2.7,0,4.9-2.2,4.9-4.9
		C308.8,88.6,306.6,86.4,303.9,86.4z" style="fill: rgb(105, 130, 105);"></path>
	<ellipse class="st0" cx="327.7" cy="708.7" rx="4.9" ry="4.9" style="fill: rgb(105, 130, 105);"></ellipse>
	<path class="st0" d="M446.6,86.4c-2.7,0-4.9,2.2-4.9,4.9c0,2.7,2.2,4.9,4.9,4.9c2.7,0,4.9-2.2,4.9-4.9
		C451.5,88.6,449.3,86.4,446.6,86.4z" style="fill: rgb(105, 130, 105);"></path>
	<path class="st0" d="M470.4,703.8c-2.7,0-4.9,2.2-4.9,4.9c0,2.7,2.2,4.9,4.9,4.9c2.7,0,4.9-2.2,4.9-4.9
		C475.3,706,473.1,703.8,470.4,703.8z" style="fill: rgb(105, 130, 105);"></path>
	<path class="st0" d="M399,703.8c-2.7,0-4.9,2.2-4.9,4.9c0,2.7,2.2,4.9,4.9,4.9c2.7,0,4.9-2.2,4.9-4.9
		C404,706,401.8,703.8,399,703.8z" style="fill: rgb(105, 130, 105);"></path>
	<path class="st0" d="M280.1,703.8c-2.7,0-4.9,2.2-4.9,4.9c0,2.7,2.2,4.9,4.9,4.9c2.7,0,4.9-2.2,4.9-4.9
		C285.1,706,282.8,703.8,280.1,703.8z" style="fill: rgb(105, 130, 105);"></path>
	<path class="st0" d="M470.4,86.4c-2.7,0-4.9,2.2-4.9,4.9c0,2.7,2.2,4.9,4.9,4.9c2.7,0,4.9-2.2,4.9-4.9
		C475.3,88.6,473.1,86.4,470.4,86.4z" style="fill: rgb(105, 130, 105);"></path>
	<path class="st0" d="M399,86.4c-2.7,0-4.9,2.2-4.9,4.9c0,2.7,2.2,4.9,4.9,4.9c2.7,0,4.9-2.2,4.9-4.9C404,88.6,401.8,86.4,399,86.4z
		" style="fill: rgb(105, 130, 105);"></path>
	<path class="st0" d="M708.7,525.9c-2.7,0-4.9,2.2-4.9,4.9c0,2.7,2.2,4.9,4.9,4.9c2.7,0,4.9-2.2,4.9-4.9
		C713.6,528.1,711.4,525.9,708.7,525.9z" style="fill: rgb(105, 130, 105);"></path>
	<path class="st0" d="M422.8,703.8c-2.7,0-4.9,2.2-4.9,4.9c0,2.7,2.2,4.9,4.9,4.9c2.7,0,4.9-2.2,4.9-4.9
		C427.8,706,425.6,703.8,422.8,703.8z" style="fill: rgb(105, 130, 105);"></path>
</g>
</svg>
