<svg width="205" height="52" viewBox="0 0 205 52" fill="none" xmlns="http://www.w3.org/2000/svg">
<path d="M88.3167 16.5368V22.0808L97.0144 21.8902C97.0144 21.8902 97.3016 25.0991 97.0144 25.0991H88.5082L88.3167 30.2142H99.3923V32.7717C99.3923 32.7717 91.4447 30.4524 90.8861 31.1037C90.3276 31.755 84.6621 38.967 84.6621 38.967L90.2637 47.6246H112.367V41.3498H95.594L93.5353 39.253L96.2483 36.3142L98.8177 38.3157L106.159 38.3634L106.015 28.7527H115.224V23.6694H105.648V20.5558H114.761V14.8371H104.579V10.834C104.579 10.834 97.142 10.7863 97.142 11.2946C97.142 11.803 97.0942 16.0444 97.0942 16.0444L88.3008 16.5527L88.3167 16.5368Z" fill="#FFF2E5"/>
<path d="M121.145 21.9377L118.432 28.7367C118.432 28.7367 127.496 29.1497 126.794 31.183C126.092 33.2164 121.288 45.5911 121.288 45.5911C121.288 45.5911 128.438 46.8461 128.709 46.6554C128.981 46.4648 134.359 30.3888 134.359 30.3888C134.359 30.3888 143.376 30.4841 142.211 33.7882C141.046 37.0924 136.513 44.8922 136.513 44.8922L143.519 45.3528C143.519 45.3528 150.238 31.3578 149.312 29.1974C148.387 27.0369 145.897 22.8591 144.684 22.8591C143.471 22.8591 137.263 22.8114 137.263 22.8114L139.737 16.7273L131.662 13.6138L128.582 21.7948L121.161 21.9377H121.145Z" fill="#FFF2E5"/>
<path d="M153.334 26.608L158.537 19.7932L163.165 23.558L167.952 16.9497L174.432 20.7145L170.586 27.3864L174.432 31.0877L170.729 36.5523L165.814 34.8367L157.962 46.1948L151.052 42.4299L159.398 30.4364L153.334 26.608Z" fill="#FFF2E5"/>
<path d="M182.299 15.4565L180.64 22.5414L199.152 23.7328L201.418 17.5534L182.299 15.4565Z" fill="#FFF2E5"/>
<path d="M181.23 26.4175L179.283 32.2157L192.401 33.3435L194.827 36.7907L185.874 47.3227L191.492 51.9453L204.929 36.5683L198.673 27.593L181.23 26.4175Z" fill="#FFF2E5"/>
<path d="M45.3715 22.5414L38.4772 20.524L34.2799 28.7367L30.2902 26.5128C30.2902 26.5128 34.8226 16.8862 34.8226 16.4891C34.8226 16.0919 27.8644 5.38516 27.8644 5.38516L18.1294 0L11.1553 5.05156C23.1884 10.9133 25.9015 17.3786 25.9015 17.3786L21.9756 24.8448L8.04334 21.2706L0 34.4714L5.74524 45.7182C5.74524 45.7182 9.33602 45.9883 9.33602 46.2583C9.33602 46.5284 17.8581 47.9422 17.8581 47.9422L26.1728 33.5977C26.1728 33.5977 29.7635 32.994 30.4977 33.7406C31.7903 35.4245 28.2634 40.6667 28.2634 40.6667L34.8864 41.8104L38.541 35.6786L43.0734 36.2187L45.3715 30.8336L41.5892 29.8964L45.3715 22.5573V22.5414ZM12.8949 41.4927L8.37848 41.175L7.03792 37.3784L12.065 30.4206L18.0337 32.0091L12.8789 41.5086L12.8949 41.4927Z" fill="#FFF2E5"/>
<path d="M75.6453 21.5884C75.6453 21.5884 76.6347 17.5535 77.0018 16.2826C77.3688 15.0118 74.4962 15.3931 71.2246 14.2334C67.953 13.0738 67.2828 21.4136 67.2828 21.4136L60.9311 21.3342L60.7236 18.6813L54.2762 18.4748L49.1533 35.4087L56.3828 36.0282L59.6863 26.624C59.6863 26.624 63.309 26.2269 64.8251 26.5605C66.3412 26.8941 63.8356 32.4222 63.8356 32.4222L61.6652 31.6121L58.7926 37.5373L62.0322 39.9837L57.6435 49.4196L67.2349 50.7222C67.2349 50.7222 70.1873 42.716 70.9214 41.6675C81.1352 40.8574 82.6992 38.1727 83.6726 30.929C84.6461 23.6852 76.2517 21.7155 76.2517 21.7155L75.6293 21.5725L75.6453 21.5884ZM75.0069 34.9321H71.7513L73.028 28.0855H77.4008C78.1987 30.8496 75.0069 34.9321 75.0069 34.9321Z" fill="#FFF2E5"/>
</svg>
