<svg width="219" height="122" viewBox="0 0 219 122" fill="none" xmlns="http://www.w3.org/2000/svg">
<path d="M96.9403 47.6562V53.2002L105.638 53.0096C105.638 53.0096 105.925 56.2184 105.638 56.2184H97.1318L96.9403 61.3335H108.016V63.8911C108.016 63.8911 100.068 61.5718 99.5097 62.2231C98.9511 62.8744 93.2856 70.0864 93.2856 70.0864L98.8873 78.744H120.99V72.4692H104.218L102.159 70.3723L104.872 67.4335L107.441 69.4351L114.782 69.4828L114.639 59.8721H123.847V54.7887H114.272V51.6752H123.384V45.9565H113.202V41.9533C113.202 41.9533 105.766 41.9057 105.766 42.414C105.766 42.9223 105.718 47.1638 105.718 47.1638L96.9243 47.6721L96.9403 47.6562Z" fill="#5F4C45"/>
<path d="M129.768 53.0574L127.055 59.8563C127.055 59.8563 136.12 60.2693 135.417 62.3027C134.715 64.336 129.912 76.7107 129.912 76.7107C129.912 76.7107 137.061 77.9657 137.333 77.7751C137.604 77.5844 142.982 61.5084 142.982 61.5084C142.982 61.5084 151.999 61.6037 150.834 64.9079C149.669 68.212 145.136 76.0118 145.136 76.0118L152.142 76.4725C152.142 76.4725 158.861 62.4774 157.936 60.317C157.01 58.1566 154.52 53.9787 153.307 53.9787C152.095 53.9787 145.887 53.9311 145.887 53.9311L148.36 47.8469L140.285 44.7334L137.205 52.9144L129.784 53.0574H129.768Z" fill="#5F4C45"/>
<path d="M161.957 57.7277L167.16 50.9128L171.788 54.6777L176.576 48.0693L183.055 51.8342L179.209 58.5061L183.055 62.2074L179.352 67.6719L174.437 65.9563L166.585 77.3144L159.675 73.5495L168.022 61.5561L161.957 57.7277Z" fill="#5F4C45"/>
<path d="M190.923 46.5762L189.263 53.6611L207.775 54.8525L210.042 48.673L190.923 46.5762Z" fill="#5F4C45"/>
<path d="M189.853 57.5371L187.906 63.3353L201.025 64.4631L203.451 67.9103L194.498 78.4423L200.115 83.065L213.553 67.6879L207.297 58.7126L189.853 57.5371Z" fill="#5F4C45"/>
<path d="M53.9945 53.661L47.1002 51.6436L42.903 59.8563L38.9132 57.6324C38.9132 57.6324 43.4456 48.0058 43.4456 47.6087C43.4456 47.2116 36.4875 36.5048 36.4875 36.5048L26.7525 31.1196L19.7784 36.1712C31.8115 42.0329 34.5245 48.4983 34.5245 48.4983L30.5986 55.9644L16.6664 52.3902L8.62305 65.591L14.3683 76.8379C14.3683 76.8379 17.9591 77.1079 17.9591 77.378C17.9591 77.648 26.4812 79.0618 26.4812 79.0618L34.7958 64.7173C34.7958 64.7173 38.3866 64.1136 39.1207 64.8603C40.4134 66.5441 36.8864 71.7863 36.8864 71.7863L43.5094 72.93L47.164 66.7983L51.6964 67.3384L53.9945 61.9532L50.2122 61.016L53.9945 53.6769V53.661ZM21.5179 72.6123L17.0015 72.2946L15.661 68.498L20.6881 61.5402L26.6567 63.1287L21.502 72.6282L21.5179 72.6123Z" fill="#5F4C45"/>
<path d="M84.2688 52.7078C84.2688 52.7078 85.2583 48.6729 85.6253 47.402C85.9924 46.1312 83.1198 46.5124 79.8482 45.3528C76.5766 44.1932 75.9063 52.533 75.9063 52.533L69.5546 52.4536L69.3471 49.8007L62.8997 49.5942L57.7769 66.5281L65.0063 67.1476L68.3098 57.7434C68.3098 57.7434 71.9325 57.3463 73.4486 57.6799C74.9647 58.0135 72.4591 63.5416 72.4591 63.5416L70.2887 62.7315L67.4161 68.6567L70.6558 71.1031L66.267 80.539L75.8584 81.8416C75.8584 81.8416 78.8108 73.8354 79.5449 72.7869C89.7587 71.9768 91.3227 69.2921 92.2962 62.0484C93.2697 54.8046 84.8752 52.8348 84.8752 52.8348L84.2528 52.6919L84.2688 52.7078ZM83.6304 66.0515H80.3748L81.6515 59.2049H86.0243C86.8223 61.969 83.6304 66.0515 83.6304 66.0515Z" fill="#5F4C45"/>
</svg>
